STARTFONT 2.1
COMMENT
COMMENT Converted from OpenType font "Font90Icons-rX1y.ttf" by "otf2bdf 3.0".
COMMENT
FONT -FreeType-Font 90 Icons-Medium-R-Normal--53-380-100-100-P-195-ISO10646-1
SIZE 38 100 100
FONTBOUNDINGBOX 57 55 0 -11
STARTPROPERTIES 19
FOUNDRY "FreeType"
FAMILY_NAME "Font 90 Icons"
WEIGHT_NAME "Medium"
SLANT "R"
SETWIDTH_NAME "Normal"
ADD_STYLE_NAME ""
PIXEL_SIZE 53
POINT_SIZE 380
RESOLUTION_X 100
RESOLUTION_Y 100
SPACING "P"
AVERAGE_WIDTH 195
CHARSET_REGISTRY "ISO10646"
CHARSET_ENCODING "1"
FONT_ASCENT 44
FONT_DESCENT 10
COPYRIGHT "Typeface © (el-harrak.blogspot.com). <darrati10@gmail.com>. All Rights Reserved"
_OTF_FONTFILE "Font90Icons-rX1y.ttf"
_OTF_PSNAME "Font 90 Icons"
ENDPROPERTIES
CHARS 242
STARTCHAR 0000
ENCODING 0
SWIDTH 0 0
DWIDTH 0 0
BBX 0 0 0 0
BITMAP
ENDCHAR
STARTCHAR 001D
ENCODING 29
SWIDTH 0 0
DWIDTH 0 0
BBX 0 0 0 0
BITMAP
ENDCHAR
STARTCHAR 0020
ENCODING 32
SWIDTH 246 0
DWIDTH 13 0
BBX 0 0 0 0
BITMAP
ENDCHAR
STARTCHAR 0021
ENCODING 33
SWIDTH 985 0
DWIDTH 52 0
BBX 51 51 0 -9
BITMAP
00001FFF800000
0000FFEFF00000
0003FFFE7C0000
000FFFFF8F0000
001FFFFFC38000
007FFFFFE1C000
00FFFFFFF06000
01FFFFFFF83000
03FFFFFFF81800
03FFFFFFF80C00
07FFFF0FFC0600
0FFFFE07FC0300
0FFFFE07FC0300
1FFFFC07FC0180
1FFFFE07FC0180
3FFFFE0FFC00C0
3FFFFFBFF800C0
7FFFFFFFF80040
7FFFFFFFF80060
7FFFFFFFF00060
7FFFFFFFE00060
7FFFFFFFC00060
FFFFFFFF800020
FFFFFFFF000020
FFFFFFFC000020
FFFFFE00000020
FFFFF000000020
FFFFE000000020
7FFF8000000060
7FFF8000000060
7FFF0000000060
7FFE0000000060
7FFE0000000040
3FFC00000000C0
3FFC00F00000C0
3FFC01F8000180
1FFC03F8000180
1FFC03F8000300
0FFC01F8000300
07FC00F0000600
07FC0000000C00
03FE0000001800
01FE0000003800
00FF0000007000
007F800000C000
003F8000038000
000FE000070000
0007F0003C0000
0001FE03F00000
00003FFFC00000
000000E0000000
ENDCHAR
STARTCHAR 0022
ENCODING 34
SWIDTH 985 0
DWIDTH 52 0
BBX 51 41 0 -4
BITMAP
00003FFFC00000
00003FFFC00000
00003800C00000
00007000C00000
00007000C00000
00007000E00000
00007000C00000
3FFFFFFFFFFFC0
7FFFFFFFFFFFE0
7FFFFFFFFFFFE0
7FFFFFFFFFFFE0
FFFFFFFFFFFFE0
FFFFFFFFFFFFE0
FFFFFFFFFFFFE0
FFFFFFFFFFFFE0
FFFFFFFFFFFFE0
FFFFFFFFFFFFE0
FFFFFFFFFFFFE0
FFFFFFFFFFFFE0
FFFFFFFFFFFFE0
FFFFFFFFFFFFE0
FFFFFFFFFFFFE0
FFFFFFFFFFFFE0
FFFFFFFFFFFFE0
FFFFFFFFFFFFE0
FFFFFFFFFFFFE0
FFFFFFFFFFFFE0
FFFFFFFFFFFFE0
FFFFFFFFFFFFE0
FFFFFFFFFFFFE0
FFFFFFFFFFFFE0
FFFFFFFFFFFFE0
FFFFFFFFFFFFE0
FFFFFFFFFFFFE0
FFFFFFFFFFFFE0
FFFFFFFFFFFFE0
7FFFFFFFFFFFE0
7FFFFFFFFFFFE0
7FFFFFFFFFFFE0
3FFFFFFFFFFFC0
00007FFE000000
ENDCHAR
STARTCHAR 0023
ENCODING 35
SWIDTH 985 0
DWIDTH 52 0
BBX 48 54 2 -11
BITMAP
0000FC000000
000FFFC00000
783FFFF00000
F87FFFFE0000
FDFFFFFFC010
FDFFFFFFFFF0
FDFFFFFFFFF0
7CFFFFFFFFF0
7CFFFFFFFFF8
7CFFFFFFFFF8
7EFFFFFFFFF8
7EFFFFFFFFF8
7E7FFFFFFFF8
3E7FFFFFFFF8
3E7FFFFFFFFC
3F7FFFFFFFFC
3F7FFFFFFFFC
3F3FFFFFFFFC
1F3FFFFFFFFC
1F3FFFFFFFFC
1F3FFFFFFFFE
1FBFFFFFFFFE
1FBFFFFFFFFE
1F9FFFFFFFFE
0F9FFFFFFFFE
0F9FF007FFFE
0F9F8000FFFE
0FDE00001FFF
0FCC000007FF
0FC8000001FF
07C00000003E
07C000000000
07E000000000
07E000000000
07E000000000
03E000000000
03E000000000
03E000000000
03F000000000
03F000000000
03F000000000
01F000000000
01F000000000
01F800000000
01F800000000
01F800000000
00F800000000
00F800000000
00F800000000
00FC00000000
00FC00000000
00FC00000000
007C00000000
007C00000000
ENDCHAR
STARTCHAR 0024
ENCODING 36
SWIDTH 985 0
DWIDTH 52 0
BBX 51 51 0 -8
BITMAP
03F80000000000
07FC0000000000
0FFE0000000000
1FFE0000000000
3FFF0000000000
7FFF8000000000
7FFFC000000000
7FFFE000000000
FFFFF000000000
FFFFFC00000000
7FFFFE00000000
7FFFFF00000000
3FFFFF80000000
1FFFFF60000000
0FFFFEF0000000
07FFFDF8000000
03FFFBFC000000
01FFF7FF000000
00FFEFFE000000
007FDFFE000000
003FBFFC000000
001F7FF8000000
001EFFF0000000
000DFFE0000000
000BFFE0000000
0007FFF0000000
0003FF78000000
0001FE3C000000
0000FC1E000000
0000780F000000
00003003800000
00002001800000
00000000C00000
00000000600000
00000000300000
00000000180000
000000000C0000
00000000060000
00000000030000
00000000018000
0000000000C000
00000000006000
00000000003000
00000000000800
00000000000400
00000000000200
00000000000100
00000000000080
00000000000040
00000000000020
00000000000020
ENDCHAR
STARTCHAR 0025
ENCODING 37
SWIDTH 985 0
DWIDTH 52 0
BBX 48 54 2 -10
BITMAP
000003C00000
00000FE00000
00000FF00000
00001FF00000
00001FF00000
00001FF00000
0000FFFF0000
0003FFFFC000
000FFFFFF000
001FFFFFF800
003FFFFFFC00
10FFFFFFFE38
7FFFE7E7FFFE
FFFF87E1FFFE
FFFE07C07FFF
FFFC07C03FFF
FFF803C01FFF
FFF803C03FFF
7FFC03807FFE
3FFE0380FFFC
1FFF0381FFF8
1FFF8383FFF8
3FFFC3C7FFFC
3F8FFFFFE1FC
3F80FFFF01FC
3F803FFC01FC
3F001FF801FC
3F001FF801FC
3F801FF801FC
3F807FFE01FC
3F83FFFFC1FC
3FBFF3CFFDFC
3FFFC383FFF8
1FFF83C1FFF8
1FFF03C0FFFC
7FFE03C07FFE
FFFC03C03FFF
FFF803C01FFF
FFF807C01FFF
FFFC07E07FFF
FFFF07E0FFFF
7FFFC7E3FFFE
3CFFFFFFFF3C
007FFFFFFE00
003FFFFFFC00
000FFFFFF000
0007FFFFE000
0001FFFF8000
00003FFC0000
00000FF00000
00000FF00000
00000FF00000
00000FE00000
000007C00000
ENDCHAR
STARTCHAR 0026
ENCODING 38
SWIDTH 985 0
DWIDTH 52 0
BBX 51 51 0 -9
BITMAP
00001FFF800000
0000FFFFF00000
0003FFFFFC0000
000FF000FE0000
001F80001F8000
003E000007C000
00F801F803E000
01F01FFF00F000
01E07FFFE07800
03C1FFFFF03C00
0783FFFFFC1E00
0F07FFFFFE0E00
0E0FFFFFFF0F00
1E1FFFFFFF8780
1C3FFFFFFF8380
3C3F7FFFFFC380
387E3FFFFFE1C0
387F1FFFDFE1C0
70FF8FFF9FE1C0
70FFC7FF3FF0E0
70FFE3FE7FF0E0
71FFF1FCFFF0E0
71FFF8F9FFF0E0
E1FFFC73FFF8E0
E1FFFE07FFF8E0
E1FFFF0FFFF8E0
E1FFFF0FFFF8E0
F1FFFF8FFFF0E0
71FFFFFFFFF0E0
70FFFFFFFFF0E0
70FFFFFFFFF0E0
70FFFFFFFFF1E0
787FFFFFFFE1C0
387FFFFFFFE1C0
383FFFFFFFC3C0
1C3FFFFFFF8380
1E1FFFFFFF8780
0E0FFFFFFF0700
0F07FFFFFE0F00
0783FFFFFC1E00
0381FFFFF83C00
03E07FFFE07800
01F01FFF80F000
00F803FC01E000
007E000007C000
001F00001F8000
000FE0007F0000
0003FFBFFC0000
0000FFFFF00000
00001FFF800000
00000060000000
ENDCHAR
STARTCHAR 0027
ENCODING 39
SWIDTH 985 0
DWIDTH 52 0
BBX 51 52 0 -9
BITMAP
00000800000000
0003FFE0000000
000FFFF8000000
003FFFFE000000
00FFFFFF000000
01FFFFFFC00000
03FFFFFFE00000
07FFFFFFE00000
0FFF81FFF00000
0FFE003FF80000
1FF8000FFC0000
1FF01C07FC0000
3FE03E03FE0000
3FC03E03FE0000
7FC03E01FE0000
7F803E00FF0000
7F803E00FF0000
7F003E00FF0000
7F0FFFF8FF0000
FF1FFFFC7F0000
FF1FFFFC7F0000
7F1FFFF87F0000
7F0FFFF0FF0000
7F803E00FF0000
7F803E00FF0000
7F803E01FF0000
7FC03E01FE0000
3FC03E03FE0000
3FE03C07FC0000
1FF0080FFC0000
1FFC001FFC0000
0FFE007FFE0000
07FFE7FFFF0000
07FFFFFFFF8000
03FFFFFFFFC000
01FFFFFFFFE000
007FFFFFFFF000
003FFFFFFFF800
000FFFF7FFFC00
0001FFC3FFFE00
00000001FFFF00
00000000FFFF80
000000007FFFC0
000000003FFFE0
000000001FFFE0
000000000FFFE0
0000000007FFE0
0000000003FFE0
0000000001FFE0
0000000000FFC0
00000000007F80
00000000001F00
ENDCHAR
STARTCHAR 0028
ENCODING 40
SWIDTH 985 0
DWIDTH 52 0
BBX 51 52 0 -9
BITMAP
00007F00000000
0007FFF0000000
001FFFFC000000
007FFFFE000000
00FFFFFF800000
01FFFFFFC00000
03FFFFFFE00000
07FFFFFFF00000
0FFF00FFF80000
1FFC003FF80000
1FF8000FFC0000
3FF00007FC0000
3FE00003FE0000
3FC00001FE0000
7F800001FE0000
7F800000FF0000
7F800000FF0000
7F07FFE0FF0000
FF1FFFF8FF0000
FF1FFFFC7F0000
FF1FFFF87F0000
FF1FFFF87F0000
7F07FFE0FF0000
7F800000FF0000
7F800000FF0000
7F800001FF0000
7FC00001FE0000
3FE00003FE0000
3FE00007FC0000
1FF0000FFC0000
1FFC001FFE0000
0FFF007FFF0000
07FFFFFFFF8000
03FFFFFFFFC000
01FFFFFFFFE000
00FFFFFFFFF000
007FFFFFFFF800
001FFFFFFFFC00
0007FFF7FFFE00
0000FF83FFFF00
00000001FFFF80
00000000FFFFC0
000000007FFFC0
000000003FFFE0
000000001FFFE0
000000000FFFE0
0000000007FFE0
0000000003FFE0
0000000001FFE0
0000000000FFC0
00000000007F80
00000000001E00
ENDCHAR
STARTCHAR 0029
ENCODING 41
SWIDTH 985 0
DWIDTH 52 0
BBX 50 38 1 -2
BITMAP
7FFFFFFFFFFF80
FFFFFFFFFFFFC0
FFFFFFFFFFFFC0
F80000000007C0
FC000000000FC0
FE000000001FC0
FF000000003FC0
EF800000007DC0
E7C0000000F9C0
E3E0000001F1C0
E1F0000003E1C0
E0F8000007C1C0
E07C00000F81C0
E03E00001F01C0
E01F00003E01C0
E00F80007C01C0
E007C000F801C0
E003E001F001C0
E001F003E001C0
E000F807C001C0
E001FC0FE001C0
E003FE1FF001C0
E0079FFEF801C0
E00F0FFC7C01C0
E01E07F83E01C0
E03C01E01F01C0
E07800000F81C0
E0F0000007C1C0
E1E0000003E1C0
E3C0000001F1C0
E780000000F9C0
EF000000007DC0
FE000000003FC0
FC000000001FC0
F8000000000FC0
FFFFFFFFFFFFC0
FFFFFFFFFFFFC0
FFFFFFFFFFFFC0
ENDCHAR
STARTCHAR 002A
ENCODING 42
SWIDTH 985 0
DWIDTH 52 0
BBX 44 54 4 -10
BITMAP
00001F000000
00003F800000
00003F800000
00003F800000
00003F800000
00003F800000
00003F800000
00003F800000
00003F800000
00003F800000
00003F800000
00003F800000
00003F800000
00003F800000
00F83F83E000
00FE3F8FE000
00FFBFBFE000
00FFFFFFE000
007FFFFFC000
003FFFFF8000
001FFFFF0000
000FFFFE0000
3FF7FFFDFFC0
3FFBFFFBFFC0
1FFDFFF7FF80
CFFEFFEFFF30
E7FF7FDFFE70
F3FFBFBFFCF0
F9FFDF7FF9F0
FCFFEEFFF3F0
FE7FFBFFE7F0
FF3FFFFFCFF0
FF9FFFFF9FF0
FFCFFFFF3FF0
FFE7FFFE7FF0
FFF3FFFCFFF0
FFF9FFF9FFF0
FFFCFFF3FFF0
FFFC7FE7FFF0
FFFC3FC3FFF0
FFFB9F9DFFF0
FFF7CF3EFFF0
FFEFE07F7FF0
FFDFFFFFBFF0
FFBFFFFFDFF0
FF7FFFFFEFF0
FEFFFFFFF7F0
FDFFFFFFFBF0
FBFFFFFFFDF0
F7FFFFFFFEF0
EFFFFFFFFF70
DFFFFFFFFFB0
3FFFFFFFFFC0
3FFFFFFFFFC0
ENDCHAR
STARTCHAR 002B
ENCODING 43
SWIDTH 985 0
DWIDTH 52 0
BBX 50 51 1 -9
BITMAP
FFFFFFFFFFFFC0
FFFFFFFFFFFFC0
FFFFFFFFFFFFC0
FFFFFFFFFFFFC0
FFFFFFFFFFFFC0
FFFFFFFFFFFFC0
F87FFFFFFF87C0
F800FFFFC007C0
F801FFFFE007C0
F803FFFFF007C0
F803FFFFF00FC0
F801FFFFE00FC0
FC00FFFFC00FC0
FC007FFF800FC0
FC003FFF000FC0
FCC07FFF80CFC0
FDE0FFFFC1EFC0
FFF1FFFFE3FFC0
FFFBFFFFF7FFC0
FFFFFFFFFFFFC0
FFFFFFFFFFFFC0
FFFFFFFFFFFFC0
FFFFFFFFFFFFC0
FFFFFFFFFFFFC0
FFFFFFFFFFFFC0
FFFFFFFFFFFFC0
FFFFFFFFFFFFC0
FFFFFFFFFFFFC0
FFFFFFFFFFFFC0
FFFFFFFFFFFFC0
FFFFFFFFFFFFC0
FFFBFFFFF7FFC0
FFF1FFFFE3FFC0
FDE0FFFFC1EFC0
FCC07FFF80CFC0
FC403FFF008FC0
FC007FFF800FC0
F800FFFFC00FC0
F801FFFFE00FC0
F803FFFFF00FC0
F803FFFFF00FC0
F801FFFFE007C0
F800FFFFC007C0
F807FFFFF807C0
FFFFFFFFFFFFC0
FFFFFFFFFFFFC0
FFFFFFFFFFFFC0
FFFFFFFFFFFFC0
FFFFFFFFFFFFC0
FFFFFFFFFFFFC0
FFFFFFFFFFFFC0
ENDCHAR
STARTCHAR 002C
ENCODING 44
SWIDTH 985 0
DWIDTH 52 0
BBX 51 50 0 -8
BITMAP
0000000003E000
00000000FFF000
00000007FFF800
0000000FFFFC00
0000001FFFFE00
0000003FFFFF00
0000007FFFFF80
000000FFFF3FC0
000001FFFE1FE0
000003FFFC0FE0
000007FFFC0FE0
00000FFFFE1FE0
00001FFFFF3FE0
00003FFFFFFFC0
00007FFFFFFFC0
0000FFFFFFFFC0
0001FFFFFFFFC0
0003FFFFFFFFC0
0007FFFFFFFFC0
000FFFFFFFFF80
001FFFFFFFFF80
003EFFFFFFFF80
007C7FFFFFFF00
00FE3FFFFFFE00
01FF1FFFFFFC00
03E78FFFFFF800
07C3C7FFFFF000
0FE1E3FFFFE000
1FF0F1FFFFC000
3FF878FFFF8000
FFFC3C7FFF0000
7FFE1E3FFE0000
3FFF0F1FFC0000
1FFF878FF80000
0FFFC3C7F00000
07FFE1E7E00000
03FFF0FFC00000
01FFF87F800000
00FFFC3F000000
007FFE7E000000
003FFFFC000000
001FFFF8000000
000FFFF0000000
0007FFE0000000
0003FFC0000000
0001FF80000000
0000FF00000000
00007E00000000
00003C00000000
00001800000000
ENDCHAR
STARTCHAR 002D
ENCODING 45
SWIDTH 985 0
DWIDTH 52 0
BBX 51 51 0 -9
BITMAP
00001FFF000000
0000FFFFE00000
0003FFFFFC0000
000FF801FE0000
001FC0003F8000
003E00000FC000
00FC000003E000
01F0000001F000
01E00000007800
03F00000203C00
07B80000701E00
0F1C0000F01E00
0F0E0001F00F00
1E070003F00780
1C038007F00780
3C01C00FF00380
3800E01FF003C0
3800703FF001C0
7800003FF001C0
7000FFFFF001E0
7000FFFFF000E0
7000FFFFF000E0
7000FFFFF000E0
F000FFFFF000E0
F000FFFFF000E0
F000FFFFF000E0
F000FFFFF000E0
F000FFFFF000E0
7000FFFFF000E0
7000FFFFF000E0
7000FFFFF001E0
7800007FF001E0
7800003FF001C0
3800001FF003C0
3C00000FF003C0
1C000007F40780
1E000003F60780
0E000001F70F00
0F000000F38F00
0780000071DE00
07C0000020FC00
03E00000007800
01F0000000F000
00F8000003F000
007E000007C000
001F80001F8000
000FF000FF0000
0003FFFFFC0000
0000FFFFF00000
00003FFF800000
00000060000000
ENDCHAR
STARTCHAR 002E
ENCODING 46
SWIDTH 985 0
DWIDTH 52 0
BBX 44 54 4 -10
BITMAP
0FFFFFFFFF80
1FFFFFFFFFC0
1C00000001C0
1C00000001C0
1C00000001C0
1C00000001C0
1C00000001C0
1C00000001C0
1C00000001C0
1C00000001C0
1C00000001C0
1C00000001C0
1C00000001C0
1C00000001C0
1C00000001C0
1C00000001C0
1C00000001C0
1C00000001C0
1C00000001C0
1C00000001C0
1C00000001C0
1C00000001C0
1C00000001C0
1C00000001C0
1C00000001C0
1C00000001C0
1FFFFFFFFFC0
0FFFFFFFFFC0
000000000000
000000000000
0FFFFFFFFF80
1FFFFFFFFFC0
1FFFFFFFFFC0
1FFFFFFFFFC0
1FFFFFF007C0
1FFFFFF007C0
1FFFFFFFFFC0
1FFFFFFFFFC0
1FFFFFFFFFC0
1FFFFFFFFFC0
0FFFFFFFFFC0
000007000000
000007000000
000007000000
000007000000
000007000000
000007000000
000007000000
0003FFFE0000
0003FFFE0000
FFFFFFFFFFF0
FFFFFFFFFFF0
FFFFFFFFFFF0
0003FFFE0000
ENDCHAR
STARTCHAR 002F
ENCODING 47
SWIDTH 985 0
DWIDTH 52 0
BBX 51 52 0 -9
BITMAP
020001F8000800
030007FE001C00
03801FFF001C00
03803FFF803C00
03C03FFFC03800
01C07FFFE07800
01E07FFFE07800
61E0FFFFE0F060
70F0FFFFE0F0E0
70F0FFFFE0F0E0
78F0FFFFE0E1E0
78F0FFFFE1E1C0
7878FFFFE1E1C0
3878FFFFE1E3C0
3C78FFFFE1E3C0
3C78FFFFE3E3C0
3C78FFFFE3E3C0
3C78FFFFE3C3C0
3C7CFFFFE3C780
3C7CFFFFE3C780
3C7CFFFFE3C780
3C7CFFFFE3C780
3C7CFFFFE3C780
3C7CFFFFE3C780
3C7CFFFFE3C780
3C78FFFFE3C380
3C78FFFFE3E3C0
3C78FFFFE3E3C0
3C78FFFFE1E3C0
3878FFFFE1E3C0
7878FFFFE1E1C0
78F0FFFFE1E1C0
70F0FFFFE0E1E0
70F07FFFE0F0E0
F0E07FFFE0F0E0
E1E03FFFC070E0
41E03FFF807820
01C01FFF807800
03C00FFE003800
038007FE003C00
038007FE001C00
030007FE001C00
000007FE000000
000007FE000000
000007FE000000
000007FE000000
000007FE000000
000007FE000000
000007FE000000
000007FE000000
000007FC000000
000003FC000000
ENDCHAR
STARTCHAR 0030
ENCODING 48
SWIDTH 985 0
DWIDTH 52 0
BBX 51 51 0 -9
BITMAP
00001FFF000000
0000FFFFF00000
0003FFFFFC0000
000FFFFFFE0000
001FFFFFFF8000
003FFFFFFFC000
007FFFFFFFE000
00FFFFFFFFF000
01FFFFFFEFF800
03FC7FFFE3FC00
07F87FFFC1FE00
0FF03FFFC0FE00
0FE01FFF807F00
1FC01FFF803F80
1F800FFF003F80
3F800FFE001FC0
3F0007FE001FC0
3F0007FC000FC0
7E0003FC000FC0
7E0003FC0007E0
7E0007FE0007E0
7E000FFF0007E0
7E001E0F0007E0
FC001C070007E0
FC001C078007E0
FFFFFC03FFFFE0
FFFFFC07FFFFE0
FFFFFE07FFFFE0
7FFFFF0FFFFFE0
7FFFFFFFFFFFE0
7FFFFFFFFFFFE0
7FFFFDF7FFFFE0
7FFFFC03FFFFC0
3FFFF801FFFFC0
3FFFF001FFFFC0
3FFFF000FFFF80
1FFFE000FFFF80
1FFFE0007FFF00
0FFFC0007FFF00
07FF80003FFE00
07FF80001FFC00
03FF00001FFC00
01FF80001FF800
00FFE0007FF000
007FFE0FFFE000
003FFFFFFF8000
000FFFFFFF0000
0007FFFFFC0000
0001FFFFF00000
00003FFFC00000
000000F0000000
ENDCHAR
STARTCHAR 0031
ENCODING 49
SWIDTH 985 0
DWIDTH 52 0
BBX 50 54 1 -10
BITMAP
00000FFC000000
00000FFC000000
00001FFC000000
00001FFC000000
00001FFC000000
00001FFC000000
00011FFC400000
00071FFC300000
000F1FFC3C0000
003F1FFC3E0000
007F1FFC3F8000
00FF1FFC3FC000
01FF1FFC3FE000
03FF1FFC3FF000
07FF1FFC3FF800
0FFE1FFC1FF800
0FF81FFC0FFC00
1FF01FFC07FE00
1FE01FFC03FE00
3FE01FFC01FF00
3FC01FFC00FF00
7F801FFC00FF00
7F801FFC007F80
7F001FFC007F80
7F001FFC007F80
FF001FFC003F80
FF001FFC003F80
FF001FFC003FC0
FE001FFC003FC0
FE000FFC003FC0
FE0007F8003FC0
FF000000003FC0
FF000000003F80
FF000000003F80
FF000000007F80
7F000000007F80
7F800000007F80
7F80000000FF00
3FC0000000FF00
3FE0000001FF00
1FE0000003FE00
1FF0000007FE00
0FF800000FFC00
0FFC00001FF800
07FF00003FF800
03FFC000FFF000
01FFF807FFE000
00FFFFFFFFC000
007FFFFFFF8000
003FFFFFFF0000
001FFFFFFC0000
0007FFFFF00000
0001FFFFC00000
00003FFE000000
ENDCHAR
STARTCHAR 0032
ENCODING 50
SWIDTH 985 0
DWIDTH 52 0
BBX 48 54 2 -10
BITMAP
000003C00000
00000FE00000
00000FF00000
00001FF00000
00001FF00000
00001FF00000
00001FF00000
00001FF00000
00000FF00000
00000FF00000
00000FE00000
10000FE00038
7E000FE000FE
FF8007E001FE
FFC007C007FF
FFE007C00FFF
FFF003C01FFF
FFF803C03FFE
7FFC03807FFE
3FFE0380FFFC
1FFF0381FFF0
07FF8383FFC0
00FFC387FE00
000FFFFFE000
0000FFFF0000
00003FFC0000
00001FF80000
00001FF80000
00001FF80000
00007FFE0000
0003FFFFC000
003FF3CFFC00
01FFC383FF80
07FF8381FFF0
1FFF03C0FFFC
7FFE03C07FFE
FFFC03C03FFF
FFF807C01FFF
FFE007C00FFF
FFC007E007FF
FF8007E003FF
7F0007E000FE
3C000FE0003C
00000FF00000
00000FF00000
00000FF00000
00000FF00000
00001FF00000
00001FF00000
00001FF00000
00000FF00000
00000FF00000
00000FE00000
000007C00000
ENDCHAR
STARTCHAR 0033
ENCODING 51
SWIDTH 985 0
DWIDTH 52 0
BBX 51 48 0 -7
BITMAP
00000040000000
00000060000000
00000060000000
000000F0000000
000000F0000000
000001F8000000
000001F8000000
000003FC000000
000003FC000000
000007FE000000
000007FE000000
00000FFF000000
00000FFF000000
00001FFF800000
00001FFF800000
00003FFFC00000
0003FFFFFC0000
01FFFFFFFFF800
FFFFFFFFFFFFE0
3FFFFFFFFFFFC0
1FFFFFFFFFFF80
0FFFFFFFFFFF00
07FFFFFFFFFE00
03FFFFFFFFFC00
01FFFFFFFFF800
00FFFFFFFFF000
007FFFFFFFE000
003FFFFFFFC000
001FFFFFFF8000
000FFFFFFF0000
0007FFFFFE0000
0007FFFFFE0000
0007FFFFFE0000
0007FFFFFE0000
000FFFFFFE0000
000FFFFFFE0000
000FFFFFFF0000
000FFFFFFF0000
000FFFFFFF0000
000FFFFFFF0000
001FFF9FFF0000
001FFE07FF0000
001FF803FF8000
001FE000FF8000
001F80003F8000
001E00000F8000
003C0000038000
0030000000C000
ENDCHAR
STARTCHAR 0034
ENCODING 52
SWIDTH 985 0
DWIDTH 52 0
BBX 51 37 0 -2
BITMAP
1FFFFFFFFFFF80
1FFFFFFFFFFF80
0FFFFFFFFFFF00
67FFFFFFFFFE60
F3FFFFFFFFFCE0
F9FFFFFFFFF9E0
FCFFFFFFFFF3E0
FE7FFFFFFFE7E0
FF3FFFFFFFCFE0
FF9FFFFFFF9FE0
FFCFFFFFFF3FE0
FFE7FFFFFE7FE0
FFF3FFFFFCFFE0
FFF9FFFFF9FFE0
FFFCFFFFF3FFE0
FFFE7FFFE7FFE0
FFFF3FFFCFFFE0
FFFF9FFF9FFFE0
FFFF8FFF3FFFE0
FFFF87FE1FFFE0
FFFF73FCCFFFE0
FFFEF9F9E7FFE0
FFFDFC63F3FFE0
FFFBFE07F9FFE0
FFF7FFFFFCFFE0
FFEFFFFFFE7FE0
FFDFFFFFFF3FE0
FFBFFFFFFF9FE0
FF7FFFFFFFCFE0
FEFFFFFFFFE7E0
FDFFFFFFFFF3E0
FBFFFFFFFFF9E0
F7FFFFFFFFFCE0
6FFFFFFFFFFE60
1FFFFFFFFFFF00
1FFFFFFFFFFF80
1FFFFFFFFFFF00
ENDCHAR
STARTCHAR 0035
ENCODING 53
SWIDTH 985 0
DWIDTH 52 0
BBX 51 39 0 -3
BITMAP
000000F03F8000
000001F87F8000
0000079C7F8000
00000E0F7F8000
00003C43FF8000
000070F1FF8000
0001E3F87F8000
000387FE3F8000
000F1FFF1F8000
001E3FFF878000
0078FFFFE3C000
00F1FFFFF0F000
01C3FFFFFC7800
078FFFFFFE1C00
0E1FFFFFFF8F00
3C7FFFFFFFC380
70FFFFFFFFE1E0
E0FFFFFFFFE060
00FFFFFFFFE000
00FFFFFFFFE000
00FFFFFFFFE000
00FFFFFFFFE000
00FFFC03FFE000
00FFFC03FFE000
00FFFC03FFE000
00FFFC03FFE000
00FFFC03FFE000
00FFFC03FFE000
00FFFC03FFE000
00FFFC03FFE000
00FFFC03FFE000
00FFFC03FFE000
00FFFC03FFE000
00FFFC03FFE000
00FFFC03FFE000
00FFFC03FFE000
00FFFC03FFE000
00FFFC03FFE000
007FFC03FFE000
ENDCHAR
STARTCHAR 0036
ENCODING 54
SWIDTH 985 0
DWIDTH 52 0
BBX 51 54 0 -10
BITMAP
00000000030000
00FC00000FC000
01FE00001FE000
01FE00001FE000
01FE00003FE000
01FE00003FE000
01FE00001FE000
01FC00001FC000
00F800000F8000
00000000000000
03FF00003FF000
1FFFE000FFFC00
3FFFF001FFFE00
7FFFF803FFFE00
7FFFF803FFFF00
7FFFF803FFFF00
FFFFF807BFEF00
F7FFB807BFF700
F7FFB807BFF780
F7FFB807FFF780
F7FFB80F7FF780
F7FFB80F7FFBC0
F7FFB80F7FFBC0
F7FFB81EFFFBC0
F7FFB81EFFFDC0
F7FFB81EFFFDE0
F7FFB81DFFFDE0
F7FFB83DFFFDE0
F7FFB81DFFFEE0
F7FFB801FFFE00
77FFB803FFFE00
27FF9003FFFF00
07DF8003FFFF00
07DF8007FFFF00
07DF8007FFFF00
07DF8007FFFF80
07DF800FFFFF80
07DF80003DF000
07DF80003DF000
07DF80003DF000
07DF80003DF000
07DF80003DF000
07DF80003DF000
07DF80003DF000
07DF80003DF000
07DF80003DF000
07DF80003DF000
07DF80003DF000
07DF80003DF000
07DF80003DF000
07DF80003DF000
07DF80003DF000
03CF00003DF000
038600001CE000
ENDCHAR
STARTCHAR 0037
ENCODING 55
SWIDTH 985 0
DWIDTH 52 0
BBX 51 39 0 -3
BITMAP
0003FFC0000000
000FFFF0000000
003FFFFC000000
00FF81FF000000
01FF00FF800000
03FE007FC00000
07FE007FE00000
0FFC003FF00000
0FFC003FF00000
1FFC007FF80000
3FFE007FF80000
3FFE00FFFC0000
3FFF01FFFC0000
7E1FC3F87E0000
7C07FFE03E0000
7803FFC01E0000
7003FFC00E0000
7001FF800E0000
F001FF800E0000
F001FF800E0000
F001FF800E0000
7003FFC00E0000
7803FFC01E0000
7C0FFFF03E0000
7FFF83FFFE0000
7FFF00FFFC0000
3FFE007FFC0000
3FFE007FFC0000
1FFC007FF80000
1FFC003FF00000
0FFC007FF00000
07FE007FF00000
03FE007FF001E0
01FF00FFF807E0
00FF81FF3E7FE0
007FFFFE3FFF80
001FFFF81FFC00
0007FFE007E000
00003E00000000
ENDCHAR
STARTCHAR 0038
ENCODING 56
SWIDTH 985 0
DWIDTH 52 0
BBX 40 54 6 -10
BITMAP
3FFFFFFFFC
7FFFFFFFFE
FFFFFFFFFF
FFFFFFFFFF
F80000001F
F00000000F
F00000000F
F00000000F
F00000000F
F00000000F
F00000000F
F00000000F
F00000000F
F00000000F
F80000001F
FFFFFFFFFF
FFFFFFFFFF
FFFFFFFFFF
FFFFFFFFFF
F81F81F81F
F01F01F81F
F01F01F81F
F01F01F81F
F01F01F81F
F01F01F81F
F81F81F81F
FFFFFFFFFF
FFFFFFFFFF
FFFFFFFFFF
FFFFFFFFFF
F81F81F81F
F01F01F81F
F01F01F81F
F01F01F81F
F01F01F81F
F01F01F81F
F01F01F81F
FFFFFFFFFF
FFFFFFFFFF
FFFFFFFFFF
FFFFFFFFFF
FFFFFFFFFF
F81F81F81F
F01F01F81F
F01F01F81F
F01F01F81F
F01F01F81F
F01F01F81F
F01F81F81F
FFFFFFFFFF
FFFFFFFFFF
FFFFFFFFFF
FFFFFFFFFF
7FFFFFFFFE
ENDCHAR
STARTCHAR 0039
ENCODING 57
SWIDTH 985 0
DWIDTH 52 0
BBX 51 49 0 -8
BITMAP
70000000000000
F8000000000000
7C000000000000
3E000000000000
1F000000000000
0F800000000000
07C00000000000
03C1FFFFFFFFE0
03E1FFFFFFFFC0
01E1FFFFFFFFC0
01F1FFFFFFFF80
00F0FFFFFFFF80
00F0FFFFFFFF80
0078FFFFFFFF00
0078FFFFFFFF00
0078FFFFFFFE00
0038FFFFFFFE00
003C7FFFFFFC00
003C7FFFFFFC00
003C7FFFFFF800
001C7FFFFFF800
001E7FFFFFF000
001E7FFFFFF000
001E3FFFFFE000
001E3FFFFFE000
001E0000000000
000E0000000000
000E0000000000
000F0000000000
000F0000000000
000F0000000000
000FFFFFFFFE00
000FFFFFFFFF00
000FFFFFFFFF00
0007FFFFFFFE00
00000000000000
00000000000000
00000000000000
0003C00000F000
000FE00003FC00
001FF00007FC00
001FF80007FE00
001FF80007FE00
001FF80007FE00
001FF80007FE00
001FF80007FE00
000FF00003FC00
000FE00001F800
00018000006000
ENDCHAR
STARTCHAR 003A
ENCODING 58
SWIDTH 985 0
DWIDTH 52 0
BBX 51 51 0 -8
BITMAP
00000000FF8000
00000003FFE000
0000000FFFF800
0000001FFFFC00
0000003FFFFE00
0000007FFFFF00
000000FFFE1F80
000001FFFC0F80
000001FFF807C0
000001FFF807C0
000003FFF807E0
000003FFF807E0
000003FFFC0FE0
000003FFFE1FE0
000003FFFFFFE0
000003FFFFFFE0
000003FFFFFFE0
000003FFFFFFE0
000003FFFFFFE0
000003FFFFFFC0
000009FFFFFFC0
000019FFFFFF80
000038FFFFFF80
00007C7FFFFF00
0000FC7FFFFE00
0001FE3FFFFC00
0003FF0FFFF800
0007FF87FFF000
000FFFC0FF8000
001FFFF0000000
003FFFFE000000
007FFFFC000000
00FFFF80000000
01FFFF80000000
03FFFF80000000
07FFFF80000000
0FFFF800000000
1FFFF800000000
3FFFF800000000
3FFE0000000000
7FFE0000000000
7FFE0000000000
FFFE0000000000
FFFE0000000000
FFFE0000000000
7FE00000000000
7FE00000000000
7FE00000000000
3FE00000000000
1FE00000000000
07C00000000000
ENDCHAR
STARTCHAR 003B
ENCODING 59
SWIDTH 985 0
DWIDTH 52 0
BBX 52 51 0 -9
BITMAP
000000F0000000
000000F0000000
000000F0000000
000000F0000000
000000F0000000
000000F0000000
000000F0000000
000000F0000000
000000F0000000
000000F0000000
000000F0000000
000000F0000000
000000F0000000
000000F0000000
000000F0000000
000000F0000000
000000F0000000
000000F0000000
000000F0000000
000000F0000000
000000F0000000
000000F0000000
000000F0000000
FFFFFFFFFFFFF0
FFFFFFFFFFFFF0
FFFFFFFFFFFFF0
FFFFFFFFFFFFF0
000000F0000000
000000F0000000
000000F0000000
000000F0000000
000000F0000000
000000F0000000
000000F0000000
000000F0000000
000000F0000000
000000F0000000
000000F0000000
000000F0000000
000000F0000000
000000F0000000
000000F0000000
000000F0000000
000000F0000000
000000F0000000
000000F0000000
000000F0000000
000000F0000000
000000F0000000
000000F0000000
000000F0000000
ENDCHAR
STARTCHAR 003C
ENCODING 60
SWIDTH 985 0
DWIDTH 52 0
BBX 51 42 0 -4
BITMAP
00000060000000
000000E0000000
000000F0000000
000001F8000000
000001F8000000
000003FC000000
000007FC000000
000007FE000000
00000FFF000000
00000F9F000000
00001F1F800000
00003F0F800000
00003E07C00000
00007E07E00000
00007C03E00000
0000F803F00000
0001F801F00000
0001F000F80000
0003F000FC0000
0003E0007C0000
0007C0007E0000
000FC0003E0000
000F80001F0000
001F80001F8000
001F00000F8000
003E00000FC000
007E000007C000
007C000003E000
00FC000003E000
00F8000001F000
01F0000001F800
03F0000000F800
03E00000007C00
07E00000007C00
07C00000003E00
0F800000003F00
1F800000001F00
1F000000000F80
3F000000000F80
3E0000000007C0
7C0000000007E0
FC0000000003E0
ENDCHAR
STARTCHAR 003D
ENCODING 61
SWIDTH 985 0
DWIDTH 52 0
BBX 51 51 0 -9
BITMAP
00001FFF000000
0000FFFFE00000
0003F001F80000
000F80003E0000
001E0000078000
0078000003C000
00F0000000E000
01C00000007000
03800000003800
030FFFE0001C00
070FFFFE000E00
0E03F03F800600
0C01F00FC00700
1C01F007E00300
1801F003F00380
3801F003F00180
3001F003F001C0
3001F003F000C0
7001F003F000C0
6001F003F000E0
6001F003F00060
6001F007E00060
E001F00FC00060
E001F01F800060
E001FFFE000060
E001FFF0000060
E001F1F8000060
E001F0FC000060
6001F07C000060
6001F03E000060
6001F03F0000E0
6001F01F8000E0
7001F00F8000C0
3001F00FC001C0
3801F007E001C0
1801F003E00180
1C01F001F00380
0C01F001F80300
0E03F800FC0700
061FFF807F0E00
071FFF807F1C00
03800000003800
01C00000007800
00E0000000F000
0078000001C000
003E0000078000
000F80001F0000
0003F000FC0000
0000FFFFF00000
00003FFF800000
000000E0000000
ENDCHAR
STARTCHAR 003E
ENCODING 62
SWIDTH 985 0
DWIDTH 52 0
BBX 51 51 0 -9
BITMAP
00000FFF000000
00007FFFE00000
0003F801F80000
000F80003E0000
001E00000F8000
0038000003C000
00F0000000E000
01E00000007000
03C00000003800
038003FF041C00
07001F87FE0E00
0E007C00FE0600
0C00F0003E0700
1C01E0001E0300
1803C0000E0380
380780000E0180
300F80000601C0
701F00000600C0
701F00000200C0
603F00000000E0
603F0000000060
603F0000000060
E03E0000000060
E07E0000000060
E07E0000000060
E07E0000000060
E07E0000000060
E07E0000000060
603F0000000060
603F0000000060
603F00000000E0
601F00000000C0
701F80000000C0
300F80000200C0
380FC0000701C0
1807E0000E0180
1C03F0001C0380
0C01F800380300
0E00FE01E00700
06003FFFC00E00
07000FFE001C00
03800000003800
01C00000007800
00E0000000F000
0078000001E000
003E0000078000
000F80001F0000
0003E000FC0000
0000FFFFF00000
00003FFF800000
000000E0000000
ENDCHAR
STARTCHAR 003F
ENCODING 63
SWIDTH 985 0
DWIDTH 52 0
BBX 51 51 0 -9
BITMAP
00000FFF000000
00007FFFE00000
0003FFFFF80000
0007FFFFFE0000
001FFFFFFF8000
003FFFBFFFC000
007FE000FFE000
00FF80001FF000
01FE00000FF800
03FC000003FC00
07F8000001FE00
0FF0000000FE00
0FE00000007F00
1FC00000003F00
1F800000003F80
3F800000001F80
3F000000000FC0
3F000000000FC0
7E000000000FC0
7E0000000007E0
7E0000000007E0
7C0000000007E0
7C0000000007E0
FC0000000003E0
FC0000000003E0
FC0000000003E0
FC0000000003E0
7C0000000007E0
7C0000000007E0
7E0000000007E0
7E0000000007E0
7E0000000007E0
7E000000000FC0
3F000000000FC0
3F000000001FC0
1F800000001F80
1FC00000003F80
0FC00000007F00
0FE0000000FF00
07F0000000FE00
07F8000003FC00
03FE000007F800
01FF00000FF800
00FFC0003FF000
007FF803FFC000
003FFFFFFF8000
000FFFFFFF0000
0007FFFFFC0000
0001FFFFF00000
00003FFFC00000
000000E0000000
ENDCHAR
STARTCHAR 0040
ENCODING 64
SWIDTH 985 0
DWIDTH 52 0
BBX 51 51 0 -9
BITMAP
00000040000000
00000060000000
000000E0000000
000000F0000000
000001F0000000
000001F8000000
000003F8000000
000003FC000000
000007FC000000
000007FE000000
00000FFE000000
00000FFF000000
00001FFF000000
00001FFF800000
00003FFF800000
00003FFFC00000
00007FFFC00000
00007FFFE00000
0000FFFFE00000
0000FFFFF00000
0001FFFFF00000
0001FFFFF80000
0003FFFFF80000
0003FFFFFC0000
0007FFFFFC0000
0007FFFFFE0000
000FFFFFFE0000
000FFFFFFF0000
001FFFFFFF0000
001FFFFFFF8000
003FFFFFFF8000
003FFFFFFFC000
007FFFFFFFC000
007FFFFFFFE000
00FFFFFFFFE000
00FFFFFFFFF000
01FFFFFFFFF000
01FFFFFFFFF800
03FFFFFFFFF800
03FFFFFFFFFC00
07FFFFFFFFFC00
07FFFFFFFFFE00
0FFFFFFFFFFE00
0FFFFFFFFFFF00
1FFFFFFFFFFF00
1FFFFFFFFFFF80
3FFFFFFFFFFF80
3FFFFFFFFFFFC0
7FFFFFFFFFFFC0
7FFFFFFFFFFFE0
FFFFFFFFFFFFE0
ENDCHAR
STARTCHAR 0041
ENCODING 65
SWIDTH 985 0
DWIDTH 52 0
BBX 50 49 1 -8
BITMAP
80002000000000
C0003000000000
E0003C00000000
F8003E00000000
FC003F00000000
FE003FC0000000
FF803FE0000000
FFC03FF0000000
FFE03FFC000000
FFF83FFE000000
FFFC3FFF000000
FFFE3FFFC00000
FFFF9FFFE00000
FFFFCFFFF00000
FFFFE3FFF80000
FFFFF9FFFE0000
FFFFFCFFFF0000
FFFFFE3FFF8000
FFFFFF9FFFE000
FFFFFFCFFFF000
FFFFFFE3FFF800
FFFFFFF9FFFE00
FFFFFFFCFFFF00
FFFFFFFE3FFF80
FFFFFFFF3FFFC0
FFFFFFFC7FFF00
FFFFFFF9FFFE00
FFFFFFE3FFFC00
FFFFFFC7FFF000
FFFFFF9FFFE000
FFFFFE3FFFC000
FFFFFC7FFF0000
FFFFF9FFFE0000
FFFFF3FFFC0000
FFFFC7FFF00000
FFFF9FFFE00000
FFFF3FFFC00000
FFFC3FFF000000
FFF83FFE000000
FFF03FFC000000
FFC03FF0000000
FF803FE0000000
FF003FC0000000
FC003F00000000
F8003E00000000
F0003C00000000
C0003000000000
80002000000000
80004000000000
ENDCHAR
STARTCHAR 0042
ENCODING 66
SWIDTH 985 0
DWIDTH 52 0
BBX 44 54 4 -10
BITMAP
800000007FF0
C00000007FF0
F00000007FF0
F80000007FF0
FE0000007FF0
FF8000007FF0
FFC000007FF0
FFF000007FF0
FFFC00007FF0
FFFE00007FF0
FFFF80007FF0
FFFFC0007FF0
FFFFF0007FF0
FFFFFC007FF0
FFFFFE007FF0
FFFFFF807FF0
FFFFFFE07FF0
FFFFFFF07FF0
FFFFFFFC7FF0
FFFFFFFF7FF0
FFFFFFFFFFF0
FFFFFFFFFFF0
FFFFFFFFFFF0
FFFFFFFFFFF0
FFFFFFFFFFF0
FFFFFFFFFFF0
FFFFFFFFFFF0
FFFFFFFFFFF0
FFFFFFFFFFF0
FFFFFFFFFFF0
FFFFFFFFFFF0
FFFFFFFFFFF0
FFFFFFFFFFF0
FFFFFFFFFFF0
FFFFFFFF7FF0
FFFFFFFC7FF0
FFFFFFF87FF0
FFFFFFE07FF0
FFFFFFC07FF0
FFFFFF007FF0
FFFFFC007FF0
FFFFF8007FF0
FFFFE0007FF0
FFFF80007FF0
FFFF00007FF0
FFFC00007FF0
FFF000007FF0
FFE000007FF0
FF8000007FF0
FF0000007FF0
FC0000007FF0
F00000007FF0
E00000007FF0
800000007FF0
ENDCHAR
STARTCHAR 0043
ENCODING 67
SWIDTH 985 0
DWIDTH 52 0
BBX 39 54 6 -10
BITMAP
FFFF81FFFE
FFFF81FFFE
FFFF81FFFE
FFFF81FFFE
FFFF81FFFE
FFFF81FFFE
FFFF81FFFE
FFFF81FFFE
FFFF81FFFE
FFFF81FFFE
FFFF81FFFE
FFFF81FFFE
FFFF81FFFE
FFFF81FFFE
FFFF81FFFE
FFFF81FFFE
FFFF81FFFE
FFFF81FFFE
FFFF81FFFE
FFFF81FFFE
FFFF81FFFE
FFFF81FFFE
FFFF81FFFE
FFFF81FFFE
FFFF81FFFE
FFFF81FFFE
FFFF81FFFE
FFFF81FFFE
FFFF81FFFE
FFFF81FFFE
FFFF81FFFE
FFFF81FFFE
FFFF81FFFE
FFFF81FFFE
FFFF81FFFE
FFFF81FFFE
FFFF81FFFE
FFFF81FFFE
FFFF81FFFE
FFFF81FFFE
FFFF81FFFE
FFFF81FFFE
FFFF81FFFE
FFFF81FFFE
FFFF81FFFE
FFFF81FFFE
FFFF81FFFE
FFFF81FFFE
FFFF81FFFE
FFFF81FFFE
FFFF81FFFE
FFFF81FFFE
FFFF81FFFE
FFFF81FFFE
ENDCHAR
STARTCHAR 0044
ENCODING 68
SWIDTH 985 0
DWIDTH 52 0
BBX 44 54 4 -10
BITMAP
800000000000
C00000000000
E00000000000
F80000000000
FE0000000000
FF0000000000
FFC000000000
FFF000000000
FFF800000000
FFFE00000000
FFFF80000000
FFFFC0000000
FFFFF0000000
FFFFFC000000
FFFFFE000000
FFFFFF800000
FFFFFFC00000
FFFFFFF00000
FFFFFFFC0000
FFFFFFFE0000
FFFFFFFF8000
FFFFFFFFE000
FFFFFFFFF000
FFFFFFFFFC00
FFFFFFFFFF00
FFFFFFFFFF80
FFFFFFFFFFE0
FFFFFFFFFFF0
FFFFFFFFFFC0
FFFFFFFFFF00
FFFFFFFFFE00
FFFFFFFFF800
FFFFFFFFE000
FFFFFFFFC000
FFFFFFFF0000
FFFFFFFC0000
FFFFFFF80000
FFFFFFE00000
FFFFFFC00000
FFFFFF000000
FFFFFC000000
FFFFF8000000
FFFFE0000000
FFFF80000000
FFFF00000000
FFFC00000000
FFF000000000
FFE000000000
FF8000000000
FF0000000000
FC0000000000
F00000000000
E00000000000
800000000000
ENDCHAR
STARTCHAR 0045
ENCODING 69
SWIDTH 985 0
DWIDTH 52 0
BBX 51 51 0 -9
BITMAP
00000FFF000000
00007FFFE00000
0003FFFFF80000
0007FFFFFE0000
001FFFFFFF8000
003FFFFFFFC000
007FFFFFFFE000
00FFFFFFFFF000
01FFFFFFFFF800
03FFFFFFFFFC00
07FFFFFFFFFE00
0FFFFFFFFFFE00
0FFFFFFFFFFF00
1FFFFFFFFFFF00
1FFFFC07FFFF80
3FFFF000FFFF80
3FFFE0007FFFC0
3FFFC0003FFFC0
7FFF80001FFFC0
7FFF00000FFFE0
7FFF00000FFFE0
7FFE00000FFFE0
7FFE000007FFE0
7FFE000007FFE0
FFFE000007FFE0
FFFE000007FFE0
FFFE000007FFE0
7FFE000007FFE0
7FFE000007FFE0
7FFF00000FFFE0
7FFF00000FFFE0
7FFF80001FFFC0
3FFF80003FFFC0
3FFFC0007FFFC0
3FFFF000FFFF80
1FFFF803FFFF80
1FFFFFFFFFFF80
0FFFFFFFFFFF00
0FFFFFFFFFFE00
07FFFFFFFFFE00
03FFFFFFFFFC00
03FFFFFFFFF800
01FFFFFFFFF000
00FFFFFFFFE000
007FFFFFFFC000
001FFFFFFF8000
000FFFFFFF0000
0003FFFFFC0000
0000FFFFF00000
00001FFF800000
00000040000000
ENDCHAR
STARTCHAR 0046
ENCODING 70
SWIDTH 985 0
DWIDTH 52 0
BBX 50 51 1 -9
BITMAP
FFFFFFFFFFFFC0
FFFFFFFFFFFFC0
FFFFFFFFFFFFC0
FFFFFFFFFFFFC0
FFFFFFFFFFFFC0
FFFFFFFFFFFFC0
FFFFFFFFFFFFC0
FFFFFFFFFFFFC0
FFFFFFFFFFFFC0
FFFFFFFFFFFFC0
FFFFFFFFFFFFC0
FFFFFFFFFFFFC0
FFFFFFFFFFFFC0
FFFFFFFFFFFFC0
FFFFFFFFFFFFC0
FFFFFFFFFFFFC0
FFFFFFFFFFFFC0
FFFFFFFFFFFFC0
FFFFFFFFFFFFC0
FFFFFFFFFFFFC0
FFFFFFFFFFFFC0
FFFFFFFFFFFFC0
FFFFFFFFFFFFC0
FFFFFFFFFFFFC0
FFFFFFFFFFFFC0
FFFFFFFFFFFFC0
FFFFFFFFFFFFC0
FFFFFFFFFFFFC0
FFFFFFFFFFFFC0
FFFFFFFFFFFFC0
FFFFFFFFFFFFC0
FFFFFFFFFFFFC0
FFFFFFFFFFFFC0
FFFFFFFFFFFFC0
FFFFFFFFFFFFC0
FFFFFFFFFFFFC0
FFFFFFFFFFFFC0
FFFFFFFFFFFFC0
FFFFFFFFFFFFC0
FFFFFFFFFFFFC0
FFFFFFFFFFFFC0
FFFFFFFFFFFFC0
FFFFFFFFFFFFC0
FFFFFFFFFFFFC0
FFFFFFFFFFFFC0
FFFFFFFFFFFFC0
FFFFFFFFFFFFC0
FFFFFFFFFFFFC0
FFFFFFFFFFFFC0
FFFFFFFFFFFFC0
FFFFFFFFFFFFC0
ENDCHAR
STARTCHAR 0047
ENCODING 71
SWIDTH 985 0
DWIDTH 52 0
BBX 44 54 4 -10
BITMAP
FFE000000010
FFE000000030
FFE0000000F0
FFE0000003F0
FFE0000007F0
FFE000001FF0
FFE000003FF0
FFE00000FFF0
FFE00003FFF0
FFE00007FFF0
FFE0001FFFF0
FFE0007FFFF0
FFE000FFFFF0
FFE003FFFFF0
FFE00FFFFFF0
FFE01FFFFFF0
FFE07FFFFFF0
FFE0FFFFFFF0
FFE3FFFFFFF0
FFEFFFFFFFF0
FFFFFFFFFFF0
FFFFFFFFFFF0
FFFFFFFFFFF0
FFFFFFFFFFF0
FFFFFFFFFFF0
FFFFFFFFFFF0
FFFFFFFFFFF0
FFFFFFFFFFF0
FFFFFFFFFFF0
FFFFFFFFFFF0
FFFFFFFFFFF0
FFFFFFFFFFF0
FFFFFFFFFFF0
FFFFFFFFFFF0
FFEFFFFFFFF0
FFE7FFFFFFF0
FFE1FFFFFFF0
FFE0FFFFFFF0
FFE03FFFFFF0
FFE00FFFFFF0
FFE007FFFFF0
FFE001FFFFF0
FFE0007FFFF0
FFE0003FFFF0
FFE0000FFFF0
FFE00003FFF0
FFE00001FFF0
FFE000007FF0
FFE000001FF0
FFE000000FF0
FFE0000003F0
FFE0000001F0
FFE000000070
FFE000000010
ENDCHAR
STARTCHAR 0048
ENCODING 72
SWIDTH 985 0
DWIDTH 52 0
BBX 51 49 0 -8
BITMAP
00000000800020
00000001800060
000000078001E0
0000000F8003E0
0000001F8007E0
0000007F801FE0
000000FF803FE0
000001FF807FE0
000007FF81FFE0
00000FFF83FFE0
00001FFF87FFE0
00007FFF9FFFE0
0000FFFF3FFFE0
0001FFFC7FFFE0
0007FFF9FFFFE0
000FFFF3FFFFE0
001FFFC7FFFFE0
007FFF9FFFFFE0
00FFFF3FFFFFE0
01FFFC7FFFFFE0
07FFF9FFFFFFE0
0FFFF3FFFFFFE0
1FFFC7FFFFFFE0
7FFF8FFFFFFFE0
FFFF9FFFFFFFE0
3FFFC7FFFFFFE0
0FFFE3FFFFFFE0
07FFF9FFFFFFE0
03FFFC7FFFFFE0
00FFFE3FFFFFE0
007FFF9FFFFFE0
003FFFC7FFFFE0
000FFFE3FFFFE0
0007FFF9FFFFE0
0003FFFCFFFFE0
0000FFFE3FFFE0
00007FFF9FFFE0
00003FFF8FFFE0
00000FFF83FFE0
000007FF81FFE0
000003FF80FFE0
000000FF803FE0
0000007F801FE0
0000003F800FE0
0000000F8003E0
000000078001E0
000000038000E0
00000000800020
00000000800020
ENDCHAR
STARTCHAR 0049
ENCODING 73
SWIDTH 985 0
DWIDTH 52 0
BBX 50 50 1 -8
BITMAP
F0400000000000
F0700000000000
F0780000000000
F07E0000000000
F07E0000000000
F07E0000000000
F07E0000000000
F07E0800000000
F07E0E00000000
F07E0F80000000
F07E0FC0000000
F07E0FF0000000
F07E0FFC000000
F07E0FFE000000
F07E0FFF800000
F07E0FFFC00000
F07E0FFFF00000
F07E0FFFFC0000
F07E0FFFFE0000
F07E0FFFFF8000
F07E0FFFFFE000
F07E0FFFFFF000
F07E0FFFFFFC00
F07E0FFFFFFF00
F07E0FFFFFFF80
F07E0FFFFFFFC0
F07E0FFFFFFF00
F07E0FFFFFFC00
F07E0FFFFFF800
F07E0FFFFFE000
F07E0FFFFFC000
F07E0FFFFF0000
F07E0FFFFC0000
F07E0FFFF80000
F07E0FFFE00000
F07E0FFF800000
F07E0FFF000000
F07E0FFC000000
F07E0FF0000000
F07E0FE0000000
F07E0F80000000
F07E0E00000000
F07E0C00000000
F07E0000000000
F07E0000000000
F07E0000000000
F07E0000000000
F07C0000000000
F0700000000000
F0400000000000
ENDCHAR
STARTCHAR 004A
ENCODING 74
SWIDTH 985 0
DWIDTH 52 0
BBX 51 50 0 -8
BITMAP
00000040000000
00000060000000
000000F0000000
000001F0000000
000001F8000000
000003FC000000
000007FE000000
00000FFE000000
00000FFF000000
00001FFF800000
00003FFFC00000
00007FFFC00000
00007FFFE00000
0000FFFFF00000
0001FFFFF80000
0003FFFFF80000
0003FFFFFC0000
0007FFFFFE0000
000FFFFFFF0000
001FFFFFFF0000
001FFFFFFF8000
003FFFFFFFC000
007FFFFFFFE000
00FFFFFFFFE000
00FFFFFFFFF000
01FFFFFFFFF800
03FFFFFFFFFC00
07FFFFFFFFFC00
07FFFFFFFFFE00
0FFFFFFFFFFF00
1FFFFFFFFFFF80
3FFFFFFFFFFF80
3FFFFFFFFFFFC0
7FFFFFFFFFFFE0
00000000000000
00000000000000
00000000000000
00000000000000
FFFFFFFFFFFFE0
FFFFFFFFFFFFE0
FFFFFFFFFFFFE0
FFFFFFFFFFFFE0
FFFFFFFFFFFFE0
FFFFFFFFFFFFE0
FFFFFFFFFFFFE0
FFFFFFFFFFFFE0
FFFFFFFFFFFFE0
FFFFFFFFFFFFE0
FFFFFFFFFFFFE0
FFFFFFFFFFFFE0
ENDCHAR
STARTCHAR 004B
ENCODING 75
SWIDTH 985 0
DWIDTH 52 0
BBX 50 52 1 -9
BITMAP
00000000003000
0000000000F800
0000000001F800
0000000003F800
0000000003F800
0000000007F800
000000000FF000
000000000FF000
000000001FE000
000000001FC000
000000003FC000
000000003F8000
000000007F8000
00000000FF0000
00000000FF0000
00000001FE0000
1FFFFFFFFC0000
1FFFFFFFFC0000
3FFFFFFFF80000
7FFFFFFFF80000
7FFFFFFFFC0000
FFFFFFFFFC0000
FFFFFFFFFE0000
07FFFFFFFF0000
001FFFFFFF0000
0000FFFFFF8000
000007FFFF8000
000000FFFFC000
000001FFFFC000
000001FFFFE000
000003FDFFE000
000003F9FFF000
000007F8FFF800
000007F07FF800
00000FE03FFC00
00000FE01FFC00
00001FC00FFE00
00003F8007FE00
00003F8003FF00
001FFF0003FF80
003FFE0001FF80
003FFE0000FFC0
007FFE00007FC0
00FFFF00003F80
0003FF00001F80
00003F80000F00
00001F80000F00
00001F80000600
00000F80000200
00000700000000
00000300000000
00000200000000
ENDCHAR
STARTCHAR 004C
ENCODING 76
SWIDTH 985 0
DWIDTH 52 0
BBX 44 54 4 -10
BITMAP
000000002000
000000002000
000000003000
000000007000
000000007800
00000000F800
0007FFE0F800
001FFFFFFC00
007FFFFFFC00
01FFFFFFFE00
03FFFFFFFE00
07FFFFFFFE00
0FFFFFFFFF00
0FE007FFFF00
1F0000FFFF80
3800003FFF80
6000003FFFC0
8000007FFFC0
000000FFFFC0
000000FFFFE0
000001FFFFE0
000003FFFFF0
000003FFF800
000007F80000
000008000000
000000000000
000000000000
000000000000
000000000000
000000000000
00003E000000
003FFC000000
3FFFFC000000
FFFFF8000000
7FFFF0000000
7FFFF0000000
3FFFE0000000
3FFFC0000060
3FFFC00001C0
1FFFE0000780
1FFFF8003F00
0FFFFFC3FF00
0FFFFFFFFE00
0FFFFFFFFC00
07FFFFFFF800
07FFFFFFE000
03FFFFFFC000
03F3FFFF0000
01E003E00000
01E000000000
01E000000000
00C000000000
00C000000000
008000000000
ENDCHAR
STARTCHAR 004D
ENCODING 77
SWIDTH 985 0
DWIDTH 52 0
BBX 51 44 0 -5
BITMAP
00000700000000
0001FFF8000000
0007FFFE000000
001FFFFF800000
007FFFFFE00000
00FFFFFFF00000
01FFFFFFF80000
03FFC03FFC0000
07FE0007FE0000
0FFC0001FF0000
0FF00000FF0000
1FE000007F8000
1FC000003FC000
3F8000001FC000
3F8000001FC000
7F0000000FE000
7F0000000FE000
7F00000007E000
7E000007FFFFE0
7E000003FFFFC0
FE000001FFFF80
FE000000FFFF00
FE0000007FFE00
FE0000003FFE00
FE0000001FFC00
7E0000001FF800
7E0000000FF000
7F00000007E000
7F00000003C000
3F800000018000
3F800000008000
3FC00000000000
1FE00000000000
0FF00000000000
0FF80001000000
07FE0007000000
03FF801F000000
01FFFFFF800000
00FFFFFF800000
007FFFFFC00000
001FFFFF800000
000FFFFF000000
0001FFF8000000
00001F80000000
ENDCHAR
STARTCHAR 004E
ENCODING 78
SWIDTH 985 0
DWIDTH 52 0
BBX 51 36 0 -1
BITMAP
00000000001E00
00000000003F00
00000000007F80
0000000000FFC0
0000000001FFE0
0000000003FFE0
0000000007FFE0
000000000FFFE0
000000001FFFC0
000000003FFF80
020000007FFF00
0F800000FFFE00
1FC00001FFFC00
3FE00003FFF800
7FF00007FFF000
7FF8000FFFE000
FFFC001FFFC000
7FFE003FFF8000
7FFF007FFF0000
3FFF80FFFE0000
1FFFC1FFFC0000
0FFFE3FFF80000
07FFF7FFF00000
03FFFFFFE00000
01FFFFFFC00000
00FFFFFF800000
007FFFFF000000
003FFFFE000000
001FFFFC000000
000FFFF8000000
0007FFF0000000
0003FFE0000000
0001FFC0000000
0000FF80000000
00007F00000000
00003E00000000
ENDCHAR
STARTCHAR 004F
ENCODING 79
SWIDTH 985 0
DWIDTH 52 0
BBX 51 51 0 -9
BITMAP
1FF80000000000
3FFFC000000000
7FFFF800000000
7FFFFE00000000
FFFFFF80000000
7FFFFFE0000000
7FFFFFF8000000
7FFFFFFE000000
1FFFFFFF000000
00FFFFFF800000
0001FFFFE00000
00003FFFF00000
00000FFFF80000
000003FFFC0000
000000FFFE0000
1FF0003FFF0000
7FFF001FFF8000
7FFFC00FFF8000
7FFFF007FFC000
FFFFFC01FFE000
7FFFFE00FFF000
7FFFFF80FFF000
3FFFFFC07FF800
1FFFFFE03FF800
007FFFF01FFC00
0007FFF80FFC00
0001FFFC0FFE00
00007FFC07FE00
00003FFE07FF00
00001FFF03FF00
000007FF03FF80
000007FF81FF80
000003FF81FF80
004001FFC0FFC0
07F800FFC0FFC0
1FFE00FFE0FFC0
1FFF007FE07FC0
3FFF007FE07FC0
7FFF803FE07FE0
7FFF803FF07FE0
7FFF803FF07FE0
FFFFC03FF07FE0
7FFFC01FF03FE0
7FFF801FF03FE0
7FFF801FF03FE0
7FFF801FF03FE0
3FFF001FF03FE0
3FFF001FF03FE0
1FFE000FE01FC0
07F80007E01F80
00400001000200
ENDCHAR
STARTCHAR 0050
ENCODING 80
SWIDTH 985 0
DWIDTH 52 0
BBX 48 54 2 -10
BITMAP
00000FE00000
00007FFE0000
0001FFFF8000
0007FFFFE000
000FFFFFF000
003FFFFFF800
007FFFFFFC00
007FFFFFFE00
00FFF81FFF00
01FFC007FF00
01FF8001FF80
03FF0000FFC0
03FE00007FC0
07FC00003FC0
07F800003FE0
07F800001FE0
0FF800001FE0
0FF000001FE0
0FF000001FE0
0FF000000FE0
0FF000000FE0
0FF000000FE0
0FF000000FE0
0FF000000FE0
FFFFFFFFFFFF
FFFFFFFFFFFF
FFFFFFFFFFFF
FFFFFFFFFFFF
FFFFFFFFFFFF
FFFFFFFFFFFF
FFFFFFFFFFFF
FFFFFC7FFFFF
FFFFF81FFFFF
FFFFF01FFFFF
FFFFF01FFFFF
FFFFF01FFFFF
FFFFF81FFFFF
FFFFF83FFFFF
FFFFFC3FFFFF
FFFFFC3FFFFF
FFFFFC3FFFFF
FFFFFC3FFFFF
FFFFFC3FFFFF
FFFFF83FFFFF
FFFFF83FFFFF
FFFFF83FFFFF
FFFFF83FFFFF
FFFFFFFFFFFF
FFFFFFFFFFFF
FFFFFFFFFFFF
FFFFFFFFFFFF
FFFFFFFFFFFF
FFFFFFFFFFFF
FFFFFFFFFFFF
ENDCHAR
STARTCHAR 0051
ENCODING 81
SWIDTH 985 0
DWIDTH 52 0
BBX 51 50 0 -8
BITMAP
003FFFFFFF8000
003FFFFFFF8000
003FFFFFFF8000
003FFFFFFF8000
003FFFFFFF8000
003FFFFFFF8000
003FFFFFFF8000
003FFFFFFF8000
003FFFFFFF8000
003FFFFFFF8000
003FFFFFFF8000
003FFFFFFF8000
003FFFFFFF8000
003FFFFFFF8000
003FFFFFFF8000
003FFFFFFF8000
003FFFFFFF8000
003FFFFFFF8000
00000070000000
00000070000000
00000070000000
00000070000000
00000070000000
00000070000000
00000070000000
00000070000000
001FFFFFFFC000
001FFFFFFFC000
0010000000C000
0010000000C000
0010000000C000
0010000000C000
0010000000C000
FFFFFC03FFFFE0
FFFFFC03FFFFE0
FFFFFC03FFFFE0
FFFFFC03FFFFE0
FFFFFC03FFFFE0
FFFFFC03FFFFE0
FFFFFC03FFFFE0
FFFFFC03FFFFE0
FFFFFC03FFFFE0
FFFFFC03FFFFE0
FFFFFC03FFFFE0
FFFFFC03FFFFE0
FFFFFC03FFFFE0
FFFFFC03FFFFE0
FFFFFC03FFFFE0
FFFFFC03FFFFE0
FFFFFC03FFFFE0
ENDCHAR
STARTCHAR 0052
ENCODING 82
SWIDTH 985 0
DWIDTH 52 0
BBX 51 30 0 2
BITMAP
00001C00000000
00001E00000000
00000F80000000
00000FC0000000
000007E0000000
000FFFF83F0000
00FFFFFC3FF000
03FFFFFE3FFC00
07FFFFFF3FFE00
0FFFFFFE3FFF00
1FFFFFFC3FFF80
3FFFFFF83FFFC0
3FC007F0003FC0
7F800FC0001FE0
7F000F80000FE0
7E000F00000FE0
7E001C000007E0
FE0000000007E0
FE0000000007E0
7E0000000007E0
7E000000000FE0
7F000000000FE0
7F800000001FC0
3FE00000007FC0
3FFFFFFFFFFF80
1FFFFFFFFFFF80
0FFFFFFFFFFF00
07FFFFFFFFFE00
03FFFFFFFFF800
00FFFFFFFFE000
ENDCHAR
STARTCHAR 0053
ENCODING 83
SWIDTH 985 0
DWIDTH 52 0
BBX 51 42 0 -4
BITMAP
00000000780000
00000000FC0000
00000001FE0000
00000003FF0000
00000007FF8000
0000000FFFC000
0000001FFFE000
0000003FFFF000
7FFFFC7FFFF800
FFFFFEFFFFFC00
FFFFF9FFFFFE00
FFFFF3FFFFFF00
FFFFE7FFFFFF80
FFFFEFFFFFFFC0
FFFFDFFFFFFFE0
FFFFDFF9FE7FE0
FFC01FE1FE1FE0
FF000F81FE07C0
FF1FE43DFEF080
FE3FF1FDFEFE20
FE7FFFFDFEFFE0
FE7FFFFDFEFFE0
FE7FFFFDFEFFE0
FCFFFFFDFEFFC0
FCFFFFFDFEFFC0
FCFFFFFDFEFFC0
F9FFFFFDFEFFC0
F9FFFFFDFEFF80
F9FFFFFDFEFF80
F9FFFFFDFEFF80
F3FFFFFDFEFF00
F3FFFFFDFEFF00
F3FFFFFDFEFF00
E7FFFFFEFCFF00
E7FFFFFE01FE00
E7FFFFFFFFFE00
E7FFFFFFFFFE00
CFFFFFFFFFFC00
4FFFFFFFFFFC00
0FFFFFFFFFFC00
1FFFFFFFFFFC00
0FFFFFFFFFF800
ENDCHAR
STARTCHAR 0054
ENCODING 84
SWIDTH 985 0
DWIDTH 52 0
BBX 51 51 0 -9
BITMAP
00000FFF000000
0000FFFFE00000
0003FFFFF80000
000FFFFFFE0000
001FFFFFFF8000
003FFFFFFFC000
007FFFFFFFE000
01FFFE0FFFF000
01FFE000FFF800
03FF80003FFC00
07FF00000FFE00
0FFF000007FE00
0FFF800003FF00
1FFFC00001FF00
1FFFE00000FF80
3FEFF000007F80
3FC7F800007FC0
3FC3FC00003FC0
7F81FE00003FC0
7F80FF00001FE0
7F807F80001FE0
7F003FC0001FE0
FF001FE0001FE0
FF000FF0000FE0
FF0007F8000FE0
FF0003FC000FE0
FF0001FE000FE0
FF0000FF001FE0
7F00007F801FE0
7F00003FC01FE0
7F80001FE01FE0
7F80000FF03FC0
7F800007F83FC0
3FC00003FC3FC0
3FE00001FE7F80
3FE00000FFFF80
1FF000007FFF80
1FF800003FFF00
0FFC00001FFE00
07FE00000FFE00
07FF80001FFC00
03FFE0007FF800
01FFFC03FFF000
00FFFFFFFFE000
007FFFFFFFC000
003FFFFFFF8000
000FFFFFFF0000
0003FFFFFC0000
0000FFFFF00000
00003FFF800000
00000040000000
ENDCHAR
STARTCHAR 0055
ENCODING 85
SWIDTH 985 0
DWIDTH 52 0
BBX 51 46 0 -6
BITMAP
00000020000000
00000070000000
000000F0000000
000001F0000000
000003F0000000
000007F0000000
00000FF0000000
00001FF0000000
00001FF0000000
00003FF0000000
00007FF0000000
0000FFF0000000
0001FFF0000000
0003FFF0000000
7FFFFFF0000000
FFFFFFF0000000
FFFFFFF0000000
FFFFFFF0000000
FFFFFFF0000000
FFFFFFF0000000
FFFFFFF07FFFE0
FFFFFFF07FFFE0
FFFFFFF07FFFE0
FFFFFFF07FFFE0
FFFFFFF07FFFE0
FFFFFFF07FFFE0
FFFFFFF0000000
FFFFFFF0000000
FFFFFFF0000000
FFFFFFF0000000
FFFFFFF0000000
7FFFFFF0000000
0003FFF0000000
0001FFF0000000
0000FFF0000000
00007FF0000000
00003FF0000000
00003FF0000000
00001FF0000000
00000FF0000000
000007F0000000
000003F0000000
000001F0000000
000000F0000000
00000070000000
00000020000000
ENDCHAR
STARTCHAR 0056
ENCODING 86
SWIDTH 985 0
DWIDTH 52 0
BBX 51 47 0 -7
BITMAP
00000038000000
00000038000000
00000078000000
000000F8000000
000001F8000000
000003F8000000
000007F8000000
00000FF8000000
00001FF8000000
00003FF8000000
00007FF8000000
0000FFF8000000
0001FFF8000000
0003FFF8000000
7FFFFFF801F800
FFFFFFF801F800
FFFFFFF801F800
FFFFFFF801F800
FFFFFFF801F800
FFFFFFF801F800
FFFFFFF8FFFFE0
FFFFFFF8FFFFE0
FFFFFFF8FFFFE0
FFFFFFF8FFFFE0
FFFFFFF8FFFFE0
FFFFFFF8FFFFE0
FFFFFFF801F800
FFFFFFF801F800
FFFFFFF801F800
FFFFFFF801F800
FFFFFFF801F800
7FFFFFF801F800
0003FFF801F800
0001FFF8000000
0000FFF8000000
00007FF8000000
00003FF8000000
00001FF8000000
00000FF8000000
00000FF8000000
000007F8000000
000003F8000000
000001F8000000
000000F8000000
00000078000000
00000038000000
00000010000000
ENDCHAR
STARTCHAR 0057
ENCODING 87
SWIDTH 985 0
DWIDTH 52 0
BBX 51 50 0 -8
BITMAP
00000000038000
00FF80003FF800
03FFE000FFFC00
0FFFF801FFFF00
1FFFFC03FFFF80
3FFFFC07FFFF80
3FFFFE0FFFFFC0
7FFFFF1FFFFFC0
7FFFFF1FFFFFE0
7FFFFFBFFFFFE0
FFFFFFFFFFFFE0
FFFFFFFFFFFFE0
7FFFFFFFFFFFE0
7FFFFFFFFFFFE0
7FFFFFFFFFFFE0
7FFFFFFFFFFFE0
7FFFFFFFFFFFE0
3FFFFFFFFFFFC0
3FFFFFFFFFFFC0
1FFFFFFFFFFF80
0FFFFFFFFFFF80
0FFFFFFFFFFF00
07FFFFFFFFFE00
03FFFFFFFFFC00
01FFFFFFFFF800
00FFFFFFFFF800
007FFFFFFFF000
003FFFFFFFE000
001FFFFFFFC000
000FFFFFFF8000
0007FFFFFF0000
0003FFFFFE0000
0001FFFFFC0000
0000FFFFF80000
00007FFFF00000
00003FFFE00000
00001FFFC00000
00000FFF800000
000007FF000000
000003FE000000
000003FE000000
000001FC000000
000000F8000000
000000F0000000
00000070000000
00000060000000
00000060000000
00000020000000
00000020000000
00000020000000
ENDCHAR
STARTCHAR 0058
ENCODING 88
SWIDTH 985 0
DWIDTH 52 0
BBX 42 54 5 -10
BITMAP
003C00000000
007E00000000
007E00000000
007E00000000
007E00000000
007E00000000
007E00000000
007E00000000
007E00000000
007E00000000
007E00000000
007E00000000
007E00000000
007E00000000
007E00000000
007E1E000000
007E3F000000
007E3F000000
007E3F0F0000
007E3F1F8000
007E3F1F8780
007E3F1F8FC0
007E3F1F8FC0
F87E3F1F8FC0
F87E3F1F8FC0
F87FFFFFFFC0
F87FFFFFFFC0
F87FFFFFFFC0
F87FFFFFFFC0
F87FFFFFFFC0
F87FFFFFFFC0
F87FFFFFFFC0
F87FFFFFFFC0
F87FFFFFFFC0
FCFFFFFFFFC0
FFFFFFFFFFC0
FFFFFFFFFFC0
FFFFFFFFFFC0
FFFFFFFFFFC0
FFFFFFFFFFC0
7FFFFFFFFFC0
3FFFFFFFFFC0
3FFFFFFFFFC0
1FFFFFFFFFC0
0FFFFFFFFFC0
0FFFFFFFFFC0
07FFFFFFFFC0
03FFFFFFFFC0
03FFFFFFFFC0
01FFFFFFFFC0
00FFFFFFFFC0
00FFFFFFFFC0
007FFFFFFF80
003FFFFFFF00
ENDCHAR
STARTCHAR 0059
ENCODING 89
SWIDTH 985 0
DWIDTH 52 0
BBX 38 54 7 -10
BITMAP
0000700000
0000F80000
0000F80000
0000F80000
0000F80000
0070F87800
00F8F87C00
00F8F87C00
00F8F87C00
00F8F87C00
00F8F87C00
00F8F87C30
00F8F87C7C
00F8F87C7C
00F8F87C7C
00F8F87C7C
00F8F87C7C
00F8F87C7C
00F8F87C7C
00F8F87C7C
00F8F87C7C
00F8F87C7C
00F8F87C7C
00F8F87C7C
00F8F87C7C
60F8F87C7C
F8F8F87C7C
F8FFFFFFFC
F8FFFFFFFC
F8FFFFFFFC
F8FFFFFFFC
F8FFFFFFFC
F8FFFFFFFC
F8FFFFFFFC
F8FFFFFFFC
F8FFFFFFFC
FDFFFFFFFC
FFFFFFFFFC
FFFFFFFFFC
FFFFFFFFFC
FFFFFFFFFC
7FFFFFFFFC
7FFFFFFFFC
3FFFFFFFFC
1FFFFFFFFC
1FFFFFFFFC
0FFFFFFFFC
07FFFFFFFC
07FFFFFFFC
03FFFFFFFC
03FFFFFFFC
01FFFFFFFC
00FFFFFFF8
007FFFFFF0
ENDCHAR
STARTCHAR 005A
ENCODING 90
SWIDTH 985 0
DWIDTH 52 0
BBX 51 52 0 -9
BITMAP
00000000003000
00000000007800
0000000C007C00
0000001E003C00
0000003E003E00
0000003E001E00
0000007E001E00
000000FE001F00
000001FE0C0F00
000003FE1E0F80
000007FE1E0F80
00000FFE0F0F80
00001FFE0F07C0
00003FFE0F87C0
00007FFE0F87C0
0000FFFE0787C0
0001FFFE0787E0
7FFFFFFE07C3E0
FFFFFFFE07C3E0
FFFFFFFE07C3E0
FFFFFFFE07C3E0
FFFFFFFE07C3E0
FFFFFFFE07C3E0
FFFFFFFE07C3E0
FFFFFFFE07C3E0
FFFFFFFE03C3E0
FFFFFFFE03C3E0
FFFFFFFE07C3E0
FFFFFFFE07C3E0
FFFFFFFE07C3E0
FFFFFFFE07C3E0
FFFFFFFE07C3E0
FFFFFFFE07C3E0
FFFFFFFE07C3E0
FFFFFFFE07C3E0
FFFFFFFE0787C0
7FFFFFFE0787C0
0001FFFE0F87C0
0000FFFE0F07C0
00007FFE0F07C0
00003FFE0F0F80
00001FFE1E0F80
00000FFE1E0F80
000007FE1C0F00
000003FE001F00
000003FE001E00
000001FE001E00
000000FE003C00
0000007E003C00
0000003E007800
0000001E007800
0000000C003000
ENDCHAR
STARTCHAR 005B
ENCODING 91
SWIDTH 985 0
DWIDTH 52 0
BBX 50 50 1 -8
BITMAP
80000000000000
E0000000000000
F8000000000000
FE000000000000
FF800000000000
FFE00000000000
FFF80000000000
FFFE0000000000
FFFF8000000000
FFFFE000000000
FFFFF800000000
FFFFFE00000000
FFFFFF80000000
FFFFFFE0000000
FFFFFFF8000000
FFFFFFFE000000
FFFFFFFF800000
FFFFFFFFE00000
FFFFFFFFF80000
FFFFFFFFFE0000
FFFFFFFFFF8000
FFFFFFFFFFE000
FFFFFFFFFFF800
FFFFFFFFFFFE00
FFFFFFFFFFFF80
FFFFFFFFFFFFC0
FFFFFFFFFFFE00
FFFFFFFFFFF800
FFFFFFFFFFE000
FFFFFFFFFF8000
FFFFFFFFFE0000
FFFFFFFFF80000
FFFFFFFFE00000
FFFFFFFF800000
FFFFFFFE000000
FFFFFFF8000000
FFFFFFE0000000
FFFFFF80000000
FFFFFE00000000
FFFFF800000000
FFFFE000000000
FFFF8000000000
FFFE0000000000
FFF80000000000
FFE00000000000
FF800000000000
FE000000000000
F8000000000000
E0000000000000
80000000000000
ENDCHAR
STARTCHAR 005C
ENCODING 92
SWIDTH 985 0
DWIDTH 52 0
BBX 51 51 0 -9
BITMAP
FFFFFFFFFFFFE0
7FFFFFFFFFFFC0
3FFFFFFFFFFFC0
3FFFFFFFFFFF80
1FFFFFFFFFFF80
1FFFFFFFFFFF00
0FFFFFFFFFFF00
0FFFFFFFFFFE00
07FFFFFFFFFE00
07FFFFFFFFFC00
03FFFFFFFFFC00
03FFFFFFFFF800
01FFFFFFFFF800
01FFFFFFFFF000
00FFFFFFFFF000
00FFFFFFFFE000
007FFFFFFFE000
007FFFFFFFC000
003FFFFFFFC000
003FFFFFFF8000
001FFFFFFF8000
001FFFFFFF0000
000FFFFFFF0000
000FFFFFFE0000
0007FFFFFE0000
0007FFFFFC0000
0003FFFFFC0000
0003FFFFF80000
0001FFFFF80000
0001FFFFF00000
0000FFFFF00000
0000FFFFE00000
00007FFFE00000
00007FFFC00000
00003FFFC00000
00003FFF800000
00001FFF800000
00001FFF000000
00000FFF000000
00000FFE000000
000007FE000000
000007FC000000
000003FC000000
000003F8000000
000001F8000000
000001F0000000
000000F0000000
000000E0000000
00000060000000
00000040000000
00000040000000
ENDCHAR
STARTCHAR 005D
ENCODING 93
SWIDTH 985 0
DWIDTH 52 0
BBX 51 51 0 -9
BITMAP
00000000000020
000000000000E0
000000000003E0
00000000000FE0
00000000003FE0
0000000000FFE0
0000000003FFE0
000000000FFFE0
000000003FFFE0
00000000FFFFE0
00000003FFFFE0
0000000FFFFFE0
0000003FFFFFE0
000000FFFFFFE0
000003FFFFFFE0
00000FFFFFFFE0
00003FFFFFFFE0
0000FFFFFFFFE0
0003FFFFFFFFE0
000FFFFFFFFFE0
003FFFFFFFFFE0
00FFFFFFFFFFE0
03FFFFFFFFFFE0
0FFFFFFFFFFFE0
3FFFFFFFFFFFE0
FFFFFFFFFFFFE0
1FFFFFFFFFFFE0
07FFFFFFFFFFE0
01FFFFFFFFFFE0
007FFFFFFFFFE0
001FFFFFFFFFE0
0007FFFFFFFFE0
0001FFFFFFFFE0
00007FFFFFFFE0
00001FFFFFFFE0
000007FFFFFFE0
000001FFFFFFE0
0000007FFFFFE0
0000001FFFFFE0
00000007FFFFE0
00000001FFFFE0
000000007FFFE0
000000001FFFE0
0000000007FFE0
0000000001FFE0
00000000007FE0
00000000001FE0
000000000007E0
000000000001E0
00000000000060
00000000000020
ENDCHAR
STARTCHAR 005E
ENCODING 94
SWIDTH 985 0
DWIDTH 52 0
BBX 51 18 0 8
BITMAP
00400000002000
00800000001000
01800000001800
03000000001C00
07000000000E00
0F000000000F00
1E000000000F80
3FFFFFFFFFFFC0
7FFFFFFFFFFFE0
FFFFFFFFFFFFE0
3FFFFFFFFFFFC0
1E000000000F80
0F000000000F00
07000000000E00
03000000001C00
01800000001800
00800000001000
00400000002000
ENDCHAR
STARTCHAR 005F
ENCODING 95
SWIDTH 985 0
DWIDTH 52 0
BBX 20 54 16 -10
BITMAP
004000
00E000
01F000
03F800
07FC00
0FFE00
1FFF00
3FF780
71F0C0
81F030
01F000
01F000
01F000
01F000
01F000
01F000
01F000
01F000
01F000
01F000
01F000
01F000
01F000
01F000
01F000
01F000
01F000
01F000
01F000
01F000
01F000
01F000
01F000
01F000
01F000
01F000
01F000
01F000
01F000
01F000
01F000
01F000
01F000
01F000
81F010
61F060
3DF3C0
1FFF80
0FFF00
07FE00
03FC00
01F800
00F000
006000
ENDCHAR
STARTCHAR 0060
ENCODING 96
SWIDTH 985 0
DWIDTH 52 0
BBX 20 54 16 -10
BITMAP
00F000
00F000
00F000
00F000
00F000
00F000
00F000
00F000
00F000
00F000
00F000
00F000
00F000
00F000
00F000
00F000
00F000
00F000
00F000
00F000
00F000
00F000
00F000
00F000
00F000
00F000
00F000
00F000
00F000
00F000
00F000
00F000
00F000
00F000
00F000
00F000
00F000
00F000
00F000
00F000
00F000
00F000
00F000
00F000
80F010
60F060
3CF3C0
1FFF80
0FFF00
07FE00
03FC00
01F800
00F000
006000
ENDCHAR
STARTCHAR 0061
ENCODING 97
SWIDTH 985 0
DWIDTH 52 0
BBX 51 29 0 2
BITMAP
00000000001000
00000000001000
00000000003000
00003FE0003800
0001FFFC007800
0007FFFF00F800
000FFFFFC0F800
003FFFFFF1FC00
007FFFFFFDFC00
00FFFFFFFFFC00
01FFFFFFFFFC00
01FFFFFFFFFE00
03FFFFFFFFFE00
07FFFFFFFFFE00
07FC07FFFFFF00
0FE0007FFFFF00
1F80001FFFFF00
1E00000FFFFF00
3C000003FFFF80
30000007FFFF80
6000000FFFFF80
4000000FFFFF80
8000001FFFFFC0
0000003FFFFFC0
0000007FFFFFC0
000000FFFFFFE0
000001FFFFFFE0
000001FFFFFFE0
000007FFFFFFE0
ENDCHAR
STARTCHAR 0062
ENCODING 98
SWIDTH 985 0
DWIDTH 52 0
BBX 50 28 1 2
BITMAP
01000000000000
01800000000000
0180003E000000
03C003FFE00000
03C01FFFF80000
03E07FFFFE0000
03F1FFFFFF0000
07F7FFFFFF8000
07FFFFFFFFC000
07FFFFFFFFE000
0FFFFFFFFFF000
0FFFFFFFFFF000
0FFFFFFFFFF800
0FFFFFFC1FFC00
1FFFFFE001FC00
1FFFFF00007E00
1FFFFE00001F00
1FFFF800000700
3FFFF800000380
3FFFFC00000180
3FFFFE00000080
7FFFFF00000040
7FFFFF80000000
7FFFFFC0000000
7FFFFFC0000000
FFFFFFE0000000
FFFFFFF0000000
FFFFFFF8000000
ENDCHAR
STARTCHAR 0063
ENCODING 99
SWIDTH 985 0
DWIDTH 52 0
BBX 50 54 1 -10
BITMAP
000007FC000000
00000FFE000000
00001FFE000000
00001FFE000000
00001FFE000000
00001FFE000000
00001FFE000000
00001FFE000000
00001FFE000000
00001FFE000000
00001FFE000000
00001FFE000000
00001FFE000000
00001FFE000000
00001FFE000000
00001FFE000000
00001FFE000000
00001FFE000000
00001FFE000000
00001FFE000000
00001FFE000000
00001FFE000000
00001FFE000000
00001FFE000000
30001FFE000200
7E001FFE003F80
FF801FFE00FFC0
FFF01FFE03FFC0
FFFC1FFE0FFFC0
FFFF1FFE3FFFC0
FFFFDFFEFFFFC0
FFFFFFFFFFFF80
7FFFFFFFFFFF80
3FFFFFFFFFFF00
1FFFFFFFFFFE00
0FFFFFFFFFFC00
07FFFFFFFFF800
03FFFFFFFFF000
01FFFFFFFFE000
00FFFFFFFFC000
007FFFFFFF8000
003FFFFFFF0000
001FFFFFFE0000
000FFFFFFC0000
0007FFFFF80000
0003FFFFF00000
0001FFFFE00000
0000FFFFC00000
00007FFF800000
00003FFF000000
00001FFE000000
00000FFC000000
000007F8000000
000001E0000000
ENDCHAR
STARTCHAR 0064
ENCODING 100
SWIDTH 985 0
DWIDTH 52 0
BBX 50 51 1 -8
BITMAP
0000000000C000
0000000003F000
0000000007F800
000000000FFC00
000000001FFE00
040000003FFF00
1F0000007FFF80
7F800000FFFFC0
7FC00001FFFFC0
FFC00003FFFFC0
FFE00007FFFFC0
FFE0000FFFFF80
FFE0001FFFFF00
FFF0003FFFFE00
FFF0007FFFFC00
FFF000FFFFF800
FFF801FFFFF000
FFF803FFFFE000
FFF807FFFFC000
FFFC0FFFFF8000
FFFC1FFFFF0000
FFFC3FFFFE0000
FFFE7FFFFC0000
FFFEFFFFF80000
FFFFFFFFF00000
FFFFFFFFE00000
FFFFFFFFC00000
FFFFFFFF800000
FFFFFFFF000000
FFFFFFFE000000
FFFFFFFC000000
FFFFFFF8000000
FFFFFFF0000000
FFFFFFE0000000
FFFFFFC0000000
FFFFFFE0000000
FFFFFFFC000000
FFFFFFFF800000
FFFFFFFFF00000
FFFFFFFFFE0000
FFFFFFFFFF8000
FFFFFFFFFFE000
FFFFFFFFFFF000
FFFFFFFFFFF800
FFFFFFFFFFF800
FFFFFFFFFFF800
FFFFFFFFFFF800
FFFFFFFFFFF800
7FFFFFFFFFF000
3FFFFFFFFFE000
1FFFFFFFFFC000
ENDCHAR
STARTCHAR 0065
ENCODING 101
SWIDTH 985 0
DWIDTH 52 0
BBX 50 51 1 -8
BITMAP
01C00000000000
07E00000000000
0FF00000000000
1FF80000000000
3FFC0000000000
7FFE0000001000
7FFF0000003E00
FFFF8000007F00
FFFFC00000FF80
FFFFE00000FFC0
FFFFF00001FFC0
7FFFF80001FFC0
3FFFFC0003FFC0
1FFFFE0003FFC0
0FFFFF0003FFC0
07FFFF8007FFC0
03FFFFC007FFC0
01FFFFE007FFC0
00FFFFF00FFFC0
007FFFF80FFFC0
003FFFFC0FFFC0
001FFFFE1FFFC0
000FFFFF1FFFC0
0007FFFFBFFFC0
0003FFFFFFFFC0
0001FFFFFFFFC0
0000FFFFFFFFC0
00007FFFFFFFC0
00003FFFFFFFC0
00001FFFFFFFC0
00000FFFFFFFC0
000007FFFFFFC0
000003FFFFFFC0
000001FFFFFFC0
000000FFFFFFC0
000001FFFFFFC0
00000FFFFFFFC0
00007FFFFFFFC0
0003FFFFFFFFC0
001FFFFFFFFFC0
007FFFFFFFFFC0
01FFFFFFFFFFC0
07FFFFFFFFFFC0
07FFFFFFFFFFC0
0FFFFFFFFFFFC0
0FFFFFFFFFFFC0
0FFFFFFFFFFFC0
07FFFFFFFFFF80
07FFFFFFFFFF80
03FFFFFFFFFF00
00FFFFFFFFFC00
ENDCHAR
STARTCHAR 0066
ENCODING 102
SWIDTH 985 0
DWIDTH 52 0
BBX 51 48 0 -7
BITMAP
000007E0000000
00000FF0000000
00001FF0000000
00003FF0000000
00007FF0000000
0000FFF0000000
0001FFE0000000
0003FFE0000000
0007FFE0000000
000FFFC0000000
001FFFC0000000
003FFF80000000
007FFF80000000
00FFFF00000000
01FFFF00000000
03FFFE00000000
07FFFE00000000
0FFFFC00000000
1FFFFFFFFFFFC0
3FFFFFFFFFFFE0
7FFFFFFFFFFFE0
7FFFFFFFFFFFE0
FFFFFFFFFFFFE0
FFFFFFFFFFFFE0
FFFFFFFFFFFFE0
7FFFFFFFFFFFE0
7FFFFFFFFFFFE0
3FFFFFFFFFFFE0
1FFFFFFFFFFFE0
0FFFFFFFFFFFC0
07FFFC00000000
03FFFE00000000
01FFFE00000000
00FFFF00000000
007FFF00000000
003FFF80000000
001FFF80000000
000FFFC0000000
0007FFC0000000
0003FFE0000000
0001FFE0000000
0000FFF0000000
00007FF0000000
00003FF0000000
00001FF0000000
00000FF0000000
000007E0000000
00000080000000
ENDCHAR
STARTCHAR 0067
ENCODING 103
SWIDTH 985 0
DWIDTH 52 0
BBX 51 48 0 -7
BITMAP
00000010000000
0000007E000000
000000FF000000
000001FF800000
000000FFC00000
000000FFE00000
000000FFF00000
000000FFF80000
0000007FFC0000
0000007FFE0000
0000003FFF0000
0000003FFF8000
0000001FFFC000
0000001FFFE000
0000000FFFF000
0000000FFFF800
00000007FFFC00
00000007FFFE00
00000003FFFF00
3FFFFFFFFFFF80
7FFFFFFFFFFFC0
FFFFFFFFFFFFE0
FFFFFFFFFFFFE0
FFFFFFFFFFFFE0
FFFFFFFFFFFFE0
FFFFFFFFFFFFE0
FFFFFFFFFFFFE0
FFFFFFFFFFFFC0
7FFFFFFFFFFF80
7FFFFFFFFFFF00
00000007FFFE00
00000007FFFC00
00000007FFF800
0000000FFFF000
0000000FFFE000
0000001FFFC000
0000003FFF8000
0000003FFF0000
0000003FFE0000
0000007FFC0000
0000007FF80000
000000FFF00000
000000FFE00000
000000FFC00000
000000FF800000
000000FF000000
000000FE000000
0000003C000000
ENDCHAR
STARTCHAR 0068
ENCODING 104
SWIDTH 985 0
DWIDTH 52 0
BBX 50 54 1 -10
BITMAP
000001E0000000
000007F8000000
00000FFC000000
00001FFE000000
00003FFF000000
00007FFF800000
0000FFFFC00000
0001FFFFE00000
0003FFFFF00000
0007FFFFF80000
000FFFFFFC0000
001FFFFFFE0000
003FFFFFFF0000
007FFFFFFF8000
00FFFFFFFFC000
01FFFFFFFFE000
03FFFFFFFFF000
07FFFFFFFFF800
0FFFFFFFFFFC00
1FFFFFFFFFFE00
3FFFFFFFFFFF00
7FFFFFFFFFFF80
FFFFFFFFFFFF80
FFFFDFFFFFFFC0
FFFF1FFF3FFFC0
FFFC1FFF0FFFC0
FFF01FFF03FFC0
FFC01FFF00FFC0
7F001FFF003F80
38001FFF000700
00001FFF000000
00001FFF000000
00001FFF000000
00001FFF000000
00001FFF000000
00001FFF000000
00001FFF000000
00001FFF000000
00001FFF000000
00001FFF000000
00001FFF000000
00001FFF000000
00001FFF000000
00001FFF000000
00001FFF000000
00001FFF000000
00001FFF000000
00001FFF000000
00001FFF000000
00001FFF000000
00001FFF000000
00001FFE000000
00000FFE000000
00000FFC000000
ENDCHAR
STARTCHAR 0069
ENCODING 105
SWIDTH 985 0
DWIDTH 52 0
BBX 51 52 0 -9
BITMAP
07FFFFFFFFC000
1FFFFFFFFFF000
3FFFFFFFFFF800
7FFFFFFFFFFC00
7FFFFFFFFFFC00
FFFFFFFFFFFE00
FFFFFFFFFFFE00
FFFFFFFFFFFE00
FFFFFFFFFFFC00
FFFFFFFFFFF800
FFFFFFFFFFE000
FFFFFFFFFF8000
FFFFFFFFFE0000
FFFFFFFFF00000
FFFFFFFF800000
FFFFFFFC000000
FFFFFFE0000000
FFFFFFE0000000
FFFFFFF0000000
FFFFFFF8000000
FFFFFFFC000000
FFFFFFFE000000
FFFFFFFF000000
FFFFFFFF800000
FFFFFFFFC00000
FFFFFFFFE00000
FFFFFFFFF00000
FFFFFFFFF80000
FFFF7FFFFC0000
FFFF3FFFFE0000
FFFE1FFFFF0000
FFFE0FFFFF8000
FFFE07FFFFC000
FFFC03FFFFE000
FFFC01FFFFF000
FFFC00FFFFF800
FFF8007FFFFC00
FFF8003FFFFE00
FFF8001FFFFF00
FFF0000FFFFF80
FFF00007FFFFC0
FFF00003FFFFE0
7FE00001FFFFE0
7FE00000FFFFE0
3FC000007FFFE0
1F8000003FFFE0
070000001FFFC0
000000000FFF80
0000000007FF00
0000000003FE00
0000000001FC00
00000000007000
ENDCHAR
STARTCHAR 006A
ENCODING 106
SWIDTH 985 0
DWIDTH 52 0
BBX 51 52 0 -9
BITMAP
003FFFFFFFFE00
00FFFFFFFFFF80
03FFFFFFFFFFC0
03FFFFFFFFFFE0
07FFFFFFFFFFE0
07FFFFFFFFFFE0
07FFFFFFFFFFE0
07FFFFFFFFFFE0
03FFFFFFFFFFE0
01FFFFFFFFFFE0
00FFFFFFFFFFE0
003FFFFFFFFFE0
0007FFFFFFFFE0
0000FFFFFFFFE0
00001FFFFFFFE0
000003FFFFFFE0
0000007FFFFFE0
000000FFFFFFE0
000001FFFFFFE0
000003FFFFFFE0
000007FFFFFFE0
00000FFFFFFFE0
00001FFFFFFFE0
00003FFFFFFFE0
00007FFFFFFFE0
0000FFFFFFFFE0
0001FFFFFFFFE0
0003FFFFFFFFE0
0007FFFFCFFFE0
000FFFFF8FFFE0
001FFFFF0FFFE0
003FFFFE07FFE0
007FFFFC07FFE0
00FFFFF807FFE0
01FFFFF003FFE0
03FFFFE003FFE0
07FFFFC003FFE0
0FFFFF8001FFE0
1FFFFF0001FFE0
3FFFFE0001FFE0
7FFFFC0000FFE0
7FFFF80000FFE0
7FFFF000007FE0
FFFFE000007FE0
7FFFC000003FC0
7FFF8000001F80
3FFF0000000E00
1FFE0000000000
0FFC0000000000
07F80000000000
03F00000000000
00E00000000000
ENDCHAR
STARTCHAR 006B
ENCODING 107
SWIDTH 985 0
DWIDTH 52 0
BBX 51 44 0 -5
BITMAP
00000008000000
00000004000000
00000006000000
00000007000000
00000007800000
00000007C00000
00000007E00000
00000007F00000
00000007F80000
00000007FC0000
00000007FE0000
00003FFFFF0000
0003FFFFFF8000
000FFFFFFFC000
003FFFFFFFE000
00FFFFFFFFF000
01FFFFFFFFF800
03FFFFFFFFFC00
07FFFFFFFFFE00
07FFFFFFFFFF00
0FFFFFFFFFFF80
1FFFFFFFFFFFC0
1FFFFFFFFFFFE0
3FFFFFFFFFFFC0
3FFFE03FFFFF00
3FFE003FFFFE00
7FF8003FFFF800
7FE0003FFFE000
7FC0007FFF8000
7F80007FFF0000
7F00007FFC0000
7E00007FF00000
7C00007FC00000
FC00007F800000
F80000FE000000
F00000F8000000
F00000F0000000
E00000C0000000
E0000100000000
E0000000000000
40000000000000
40000000000000
40000000000000
40000000000000
ENDCHAR
STARTCHAR 006C
ENCODING 108
SWIDTH 1080 0
DWIDTH 57 0
BBX 57 49 0 -8
BITMAP
0000008000000000
0000008000000000
0000018000000000
0000038000000000
0000078000000000
00000F8000000000
00001F8000000000
00003F8000000000
00007F8000000000
0000FF8000000000
0001FF8000000000
0003FF8000000000
0007FFFFF8000000
000FFFFFFF800000
001FFFFFFFF00000
003FFFFFFFFC0000
007FFFFFFFFE0000
00FFFFFFFFFF8000
01FFFFFFFFFFC000
03FFFFFFFFFFE000
07FFFFFFFFFFE000
0FFFFFFFFFFFF000
1FFFFFFFFFFFF800
3FFFFFFFFFFFF800
FFFFFFFFFFFFFC00
3FFFFFFFFFFFFC00
1FFFFFFFFFFFFE00
07FFFFF001FFFE00
01FFFFF8003FFE00
00FFFFF8000FFF00
003FFFF80007FF00
000FFFF80003FF00
0003FFF80001FF00
0001FFF80000FF00
00007FFC00007F00
00001FFC00003F00
000007FC00001F80
000003FC00001F80
000000FC00000F80
0000003C00000F80
0000001E00000780
0000000600000780
0000000200000380
0000000000000300
0000000000000100
0000000000000100
0000000000000100
0000000000000100
0000000000000100
ENDCHAR
STARTCHAR 006D
ENCODING 109
SWIDTH 985 0
DWIDTH 52 0
BBX 45 54 3 -10
BITMAP
0007FFFF0000
0007FFFF0000
0007FFFF0000
0007FFFF0000
0007FFFF0000
0007FFFF0000
0007FFFF0000
0007FFFF0000
0007FFFF0000
0007FFFF0000
0007FFFF0000
0007FFFF0000
0007FFFF0000
0007FFFF0000
0007FFFF0000
0007FFFF0000
0007FFFF0000
0007FFFF0000
0007FFFF0000
0007FFFF0000
0007FFFF0000
0007FFFF0000
0007FFFF0000
0007FFFF0000
0007FFFF0000
0007FFFF0000
0007FFFF0000
0007FFFF0000
0007FFFF0000
0007FFFF0000
FFFFFFFFFFF8
3FFFFFFFFFF0
1FFFFFFFFFE0
0FFFFFFFFFC0
0FFFFFFFFF80
07FFFFFFFF00
03FFFFFFFE00
01FFFFFFFE00
00FFFFFFFC00
007FFFFFF800
003FFFFFF000
001FFFFFE000
000FFFFFC000
0007FFFF8000
0003FFFF0000
0001FFFE0000
0000FFFC0000
0000FFF80000
00007FF00000
00003FE00000
00001FE00000
00000FC00000
000007800000
000003000000
ENDCHAR
STARTCHAR 006E
ENCODING 110
SWIDTH 985 0
DWIDTH 52 0
BBX 51 42 0 -4
BITMAP
00000200000000
00000200000000
00000E00000000
00001E00000000
00003E00000000
00007E00000000
0000FE00000000
0001FE00000000
0003FE00000000
0007FE00000000
000FFE00000000
001FFE00000000
003FFFFFFFFFE0
007FFFFFFFFFE0
01FFFFFFFFFFE0
03FFFFFFFFFFE0
07FFFFFFFFFFE0
0FFFFFFFFFFFE0
1FFFFFFFFFFFE0
3FFFFFFFFFFFE0
7FFFFFFFFFFFE0
FFFFFFFFFFFFE0
3FFFFFFFFFFFE0
1FFFFFFFFFFFE0
0FFFFFFFFFFFE0
07FFFFFFFFFFE0
03FFFFFFFFFFE0
01FFFFFFFFFFE0
00FFFFFFFFFFE0
007FFE00000000
001FFE00000000
000FFE00000000
0007FE00000000
0003FE00000000
0001FE00000000
0000FE00000000
00007E00000000
00003E00000000
00001E00000000
00000E00000000
00000600000000
00000200000000
ENDCHAR
STARTCHAR 006F
ENCODING 111
SWIDTH 985 0
DWIDTH 52 0
BBX 51 42 0 -4
BITMAP
00000008000000
0000000C000000
0000000E000000
0000000F000000
0000000F800000
0000000FC00000
0000000FE00000
0000000FF80000
0000000FFC0000
0000000FFE0000
0000000FFF0000
0000000FFF8000
FFFFFFFFFFC000
FFFFFFFFFFE000
FFFFFFFFFFF000
FFFFFFFFFFF800
FFFFFFFFFFFC00
FFFFFFFFFFFE00
FFFFFFFFFFFF00
FFFFFFFFFFFFC0
FFFFFFFFFFFFE0
FFFFFFFFFFFFE0
FFFFFFFFFFFFC0
FFFFFFFFFFFF80
FFFFFFFFFFFF00
FFFFFFFFFFFC00
FFFFFFFFFFF800
FFFFFFFFFFF000
FFFFFFFFFFE000
0000000FFFC000
0000000FFF8000
0000000FFF0000
0000000FFE0000
0000000FFC0000
0000000FF80000
0000000FF00000
0000000FE00000
0000000FC00000
0000000F000000
0000000E000000
0000000C000000
00000008000000
ENDCHAR
STARTCHAR 0070
ENCODING 112
SWIDTH 985 0
DWIDTH 52 0
BBX 45 54 3 -10
BITMAP
000002000000
000003000000
000007800000
00000FC00000
00001FE00000
00003FF00000
00007FF80000
0000FFFC0000
0001FFFE0000
0003FFFF0000
0007FFFF8000
000FFFFF8000
001FFFFFC000
001FFFFFE000
003FFFFFF000
007FFFFFF800
00FFFFFFFC00
01FFFFFFFE00
03FFFFFFFF00
07FFFFFFFF80
0FFFFFFFFFC0
1FFFFFFFFFE0
3FFFFFFFFFF0
7FFFFFFFFFF8
FFFFFFFFFFF8
0007FFFF0000
0007FFFF0000
0007FFFF0000
0007FFFF0000
0007FFFF0000
0007FFFF0000
0007FFFF0000
0007FFFF0000
0007FFFF0000
0007FFFF0000
0007FFFF0000
0007FFFF0000
0007FFFF0000
0007FFFF0000
0007FFFF0000
0007FFFF0000
0007FFFF0000
0007FFFF0000
0007FFFF0000
0007FFFF0000
0007FFFF0000
0007FFFF0000
0007FFFF0000
0007FFFF0000
0007FFFF0000
0007FFFF0000
0007FFFF0000
0007FFFF0000
0007FFFF0000
ENDCHAR
STARTCHAR 0071
ENCODING 113
SWIDTH 985 0
DWIDTH 52 0
BBX 46 54 3 -10
BITMAP
000000010000
000000010000
000000038000
000000038000
00000007C000
0000000FE000
0000000FE000
0000001FF000
0000001FF000
0000003FF800
0000003FFC00
0000007FFC00
000000FFFE00
000000FFFE00
000001FFFF00
FF0001FFFF00
FF0003FFFF80
FF0007FFFFC0
FF0007FFFFC0
FF000FFFFFE0
FF000FFFFFE0
FF001FFFFFF0
FF001FFFFFF0
FF003FFFFFF8
FF007FFFFFFC
FF00001FF000
FF00001FF000
FF00001FF000
FF00001FF000
FF00001FF000
FF00001FF000
FF00001FF000
FF00001FF000
FF00001FF000
FF00001FF000
FF00001FF000
FF00001FF000
FF00001FF000
FF80001FF000
FF80001FE000
FF80003FE000
FFC0003FE000
7FE0007FE000
7FF000FFC000
3FF803FFC000
3FFF0FFF8000
1FFFFFFF8000
0FFFFFFF0000
0FFFFFFE0000
07FFFFFC0000
01FFFFF80000
00FFFFE00000
003FFFC00000
000FFE000000
ENDCHAR
STARTCHAR 0072
ENCODING 114
SWIDTH 985 0
DWIDTH 52 0
BBX 51 44 0 -5
BITMAP
00000080000000
00000300000000
00000F00000000
00001F00000000
00007F00000000
0001FF00000000
0003FF00000000
000FFF00000000
003FFF00000000
00FFFF00000000
01FFFFFFF80000
07FFFFFFFF8000
1FFFFFFFFFE000
7FFFFFFFFFF000
FFFFFFFFFFFC00
1FFFFFFFFFFE00
0FFFFFFFFFFF00
03FFFFFFFFFF00
00FFFF000FFF80
003FFF0001FFC0
001FFF0000FFC0
0007FF00007FC0
0001FF00003FE0
00007F00003FE0
00003F00001FE0
00000F00001FE0
00000300001FE0
00000100001FE0
00000000001FE0
00000000001FE0
00000000001FE0
00000000003FE0
00000000007FC0
0000000000FFC0
0000000001FFC0
0000000007FF80
0003FFFFFFFF00
0003FFFFFFFF00
0003FFFFFFFE00
0003FFFFFFFC00
0003FFFFFFF800
0003FFFFFFE000
0003FFFFFF8000
0003FFFFFC0000
ENDCHAR
STARTCHAR 0073
ENCODING 115
SWIDTH 985 0
DWIDTH 52 0
BBX 51 40 0 -3
BITMAP
00000060000000
00007FFFE00000
0003FFFFFC0000
001FFFFFFF0000
007FFFFFFFC000
00FFFFFFFFF000
03FFFFFFFFF800
07FFFFFFFFFC00
0FFFFFFFFFFE00
1FFFFFFFFFFF00
1FFFFFFFFFFF80
3FFFFFFFFFFFC0
7FFFFFFFFFFFC0
7FFFFFFFFFFFE0
7FFFFFFFFFFFE0
7FFFFFFFFFFFE0
FFFFFFFFFFFFE0
FFFFFFFFFFFFE0
FFFFFFFFFFFFE0
FFFFFFFFFFFFE0
7FFFFFFFFFFFE0
7FFFFFFFFFFFE0
7FFFFFFFFFFFC0
3FFFFFFFFFFFC0
3FFFFFFFFFFF80
1FFFFFFFFFFF00
0FFFFFFFFFFE00
07FFFFFFFFFC00
03FFFFFFFFF800
01FFFFFFFFF000
007FFFFFFFC000
001FFFFFFF0000
0007FFFFF80000
0000FFFFC00000
00003FC0000000
00003F80000000
00003F00000000
00007E00000000
0000F800000000
0003C000000000
ENDCHAR
STARTCHAR 0074
ENCODING 116
SWIDTH 985 0
DWIDTH 52 0
BBX 51 43 0 -5
BITMAP
3FFFFFFFFFFFC0
7FFFFFFFFFFFE0
FFFFFFFFFFFFE0
FFFFFFFFFFFFE0
FFFFFFFFFFFFE0
FFFFFFFFFFFFE0
FFFFFFFFFFFFE0
FFFFFFFFFFFFE0
FFFFFFFFFFFFE0
FFFFFFFFFFFFE0
FFFFFFFFFFFFE0
FFFFFFFFFFFFE0
FFFFFFFFFFFFE0
FFFFFFFFFFFFE0
FFFFFFFFFFFFE0
FFFFFFFFFFFFE0
FFFFFFFFFFFFE0
FFFFFFFFFFFFE0
FFFFFFFFFFFFE0
FFFFFFFFFFFFE0
FFFFFFFFFFFFE0
FFFFFFFFFFFFE0
FFFFFFFFFFFFE0
FFFFFFFFFFFFE0
FFFFFFFFFFFFE0
FFFFFFFFFFFFE0
FFFFFFFFFFFFE0
FFFFFFFFFFFFE0
FFFFFFFFFFFFE0
FFFFFFFFFFFFE0
7FFFFFFFFFFFE0
7FFFFFFFFFFFE0
1FFFFFFFFFFF80
000003F0000000
000007E0000000
000007C0000000
00000F80000000
00000F00000000
00001C00000000
00001800000000
00003000000000
00002000000000
00004000000000
ENDCHAR
STARTCHAR 0075
ENCODING 117
SWIDTH 985 0
DWIDTH 52 0
BBX 51 40 0 -3
BITMAP
000007FC000000
0000FFFFF00000
0007FFFFFE0000
001FFFFFFF8000
007FFFFFFFE000
01FFFFFFFFF000
03FFFFFFFFFC00
07FFFFFFFFFE00
0FFFFFFFFFFF00
1FFFFFFFFFFF80
3FFFFFFFFFFF80
3FFFFFFFFFFFC0
7FFFFFFFFFFFC0
7FFFFFFFFFFFE0
FFFFFFFFFFFFE0
FFFFFFFFFFFFE0
FFFFFFFFFFFFE0
FFFFFFFFFFFFE0
FFFFFFFFFFFFE0
FFFFFFFFFFFFE0
7FFFFFFFFFFFE0
7FFFFFFFFFFFE0
7FFFFFFFFFFFC0
3FFFFFFFFFFFC0
1FFFFFFFFFFF80
1FFFFFFFFFFF00
0FFFFFFFFFFE00
07FFFFFFFFFC00
01FFFFFFFFF800
00FFFFFFFFF000
003FFFFFFFC000
000FFFFFFF0000
0001FFFFFC0000
00001FFFE00000
0000003F800000
0000001F800000
0000000FC00000
00000007E00000
00000001F00000
000000003C0000
ENDCHAR
STARTCHAR 0076
ENCODING 118
SWIDTH 985 0
DWIDTH 52 0
BBX 51 43 0 -5
BITMAP
3FFFFFFFFFFFC0
7FFFFFFFFFFFE0
FFFFFFFFFFFFE0
FFFFFFFFFFFFE0
FFFFFFFFFFFFE0
FFFFFFFFFFFFE0
FFFFFFFFFFFFE0
FFFFFFFFFFFFE0
FFFFFFFFFFFFE0
FFFFFFFFFFFFE0
FFFFFFFFFFFFE0
FFFFFFFFFFFFE0
FFFFFFFFFFFFE0
FFFFFFFFFFFFE0
FFFFFFFFFFFFE0
FFFFFFFFFFFFE0
FFFFFFFFFFFFE0
FFFFFFFFFFFFE0
FFFFFFFFFFFFE0
FFFFFFFFFFFFE0
FFFFFFFFFFFFE0
FFFFFFFFFFFFE0
FFFFFFFFFFFFE0
FFFFFFFFFFFFE0
FFFFFFFFFFFFE0
FFFFFFFFFFFFE0
FFFFFFFFFFFFE0
FFFFFFFFFFFFE0
FFFFFFFFFFFFE0
FFFFFFFFFFFFE0
7FFFFFFFFFFFE0
7FFFFFFFFFFFE0
3FFFFFFFFFFF80
000001FC000000
000000FC000000
0000003E000000
0000001E000000
0000000F000000
00000007000000
00000003800000
00000001800000
00000000400000
00000000400000
ENDCHAR
STARTCHAR 0077
ENCODING 119
SWIDTH 985 0
DWIDTH 52 0
BBX 51 51 0 -9
BITMAP
000001F0000000
000003FC000000
000007FC000000
000007FE000000
000007FE000000
000007FE000000
007C07FE03E000
00FE3FFE07F000
01FFFFFF8FF800
01FFFFFFFFF800
03FFFFFFFFF800
03FFFFFFFFF800
01FFFFFFFFF800
01FFFFFFFFF000
00FFFFFFFFF000
007FFFFFFFE000
007FFFFFFFC000
00FFFE0FFFC000
00FFF801FFC000
01FFF000FFC000
0FFFE0007FFF00
3FFFE0007FFFC0
7FFFC0003FFFE0
7FFFC0003FFFE0
FFFFC0003FFFE0
FFFFC0003FFFE0
FFFFC0003FFFE0
7FFFC0003FFFE0
3FFFC0007FFFC0
1FFFE0007FFF80
00FFF000FFC000
00FFF801FF8000
007FFC03FF8000
007FFFFFFF8000
003FFFFFFFC000
007FFFFFFFE000
00FFFFFFFFF000
01FFFFFFFFF800
01FFFFFFFFF800
03FFFFFFFFF800
03FFFFFFBFF800
01FF9FFE1FF800
01FF07FE0FF000
00FE07FE07F000
003807FE01C000
000007FE000000
000007FE000000
000007FC000000
000003FC000000
000001F8000000
000000E0000000
ENDCHAR
STARTCHAR 0078
ENCODING 120
SWIDTH 985 0
DWIDTH 52 0
BBX 51 42 0 -5
BITMAP
001C0000000000
071E0000000000
0F9E0000000000
07FE0000000000
07FFF000000000
07FFF000000000
7FFFF000000000
FF07E000000000
FF03E007000000
7E03E00F804000
0E03F01FC1F000
0F03F81FC3F000
3F07F81FF7F800
7FFFF01FFFF800
7FFF803FFFF000
3BFF0F7FFFF000
01FF9FFFFFE000
03F7BFFFFFE000
03E7BFFFFFF3C0
01C01FFFFFFFE0
00001FFE07FFE0
000007FC03FFE0
000007F801FFE0
000007F800FFE0
000007F000FF80
00000FF000FC00
00003FF800FC00
00007FF801F800
00007FF801FE00
00007FFC03FF00
00007FFF0FFF80
00003FFFFFFFC0
000001FFFFFFC0
000000FFFFFFC0
0000007FFF9F80
000000FFFF0700
000000FFFF8000
000000FE3F8000
000000FC3F8000
000000FC3F8000
000000781F8000
000000001F0000
ENDCHAR
STARTCHAR 0079
ENCODING 121
SWIDTH 985 0
DWIDTH 52 0
BBX 51 45 0 -5
BITMAP
0000FFC0000000
0003FFF003F800
0007FFF80FFE00
001FFFFE0FFF80
003FFE031FFC00
007FF8001FC000
007FF0003FC000
00FFF0003FE060
01FFF0003FFFC0
01FFF8003FFFC0
03FFFC007FFF80
07FFFE007FFF00
3FF7FF00FFFE00
7FC0FF80FFFC00
FFC07FC1FFF000
7FC03FE3FFE000
3FC00FF7FFF000
1FC007FFFFF000
0F8003FFFC0000
038001FFF00000
000000FFE00000
000001FFC00000
000003FFE00000
000007FFF00000
00000FFFF80000
00001FFFFC0000
00007FF7FE0000
0000FFE3FF0000
0001FFC1FF8000
0003FF80FFC000
000FFF007FE000
001FFE003FF000
003FFC001FF800
007FF8001FFC00
01FFF0000FFE00
03FFE00007FF00
07FFC00003FF80
0FFF800001FFC0
0FFF000000FFE0
0FFE0000007FE0
0FFC0000003FC0
0FF80000003F80
07F00000001F00
03C00000000E00
00000000000400
ENDCHAR
STARTCHAR 007A
ENCODING 122
SWIDTH 985 0
DWIDTH 52 0
BBX 51 51 0 -9
BITMAP
00000001000000
00000002000000
00000006000000
0000000E000000
0000001E000000
0000003C000000
0000007C000000
000000FC000000
000000FC000000
000000FC000000
000001F8000000
000001F8000000
000001F8000000
000001F8000000
000003F0000000
000003F0000000
000003F0000000
000003F0000000
000007F0000000
000007E0000020
000007E00007C0
000007E0007F80
01FE07E00FFF00
07FF0FE0FFFE00
1FFF8FDFFFFC00
3FFFCFFFFFF800
3FFFFFFFFFF000
7E07FFFFFF8000
7C07FFFFF80000
FC07FFFF000000
FC0FFFF0000000
FF7FFF80000000
7FFFBF80000000
7FFFBFC0000000
3FFF7FE0000000
1FFCFFF0000000
07F0FFF0000000
0001FFF8000000
0001F8F8000000
0003F0F8000000
0003F0F8000000
0003E0F8000000
0003E0F8000000
0003E1F8000000
0003F3F0000000
0003FFF0000000
0001FFE0000000
0001FFC0000000
0000FF80000000
00007F00000000
00000800000000
ENDCHAR
STARTCHAR 007B
ENCODING 123
SWIDTH 985 0
DWIDTH 52 0
BBX 51 48 0 -7
BITMAP
000000003FF000
000000003F8000
000000001F8000
000000001FE000
000000001FF000
000000000FF800
000000000DFC00
0000000008FC00
00000000087E00
00000000003F00
00000000001F00
00000000000F80
00000000000F80
000000000007C0
000000000007C0
000000000003C0
000000000003E0
000000000003E0
000000000003E0
000000000001E0
000000000001E0
000000000001E0
000000000001E0
F80000000001E0
F80000000001E0
780000000001E0
780000000003E0
780000000003E0
7C0000000003E0
7C0000000003C0
3C0000000007C0
3E0000000007C0
3E000000000F80
1F000000000F80
1F000000001F00
0F800000003F00
0FC00000003E00
07E00000007E00
03F0000001FC00
01F8000003F800
00FE000007F000
007F80001FE000
003FE000FFC000
001FFF9FFF8000
0007FFFFFE0000
0003FFFFF80000
00007FFFE00000
00000FFF000000
ENDCHAR
STARTCHAR 007C
ENCODING 124
SWIDTH 985 0
DWIDTH 52 0
BBX 51 48 0 -7
BITMAP
00FFC000000000
003F8000000000
003F8000000000
007F8000000000
00FF0000000000
01FF0000000000
03FB0000000000
03F20000000000
07E20000000000
0FC00000000000
0F800000000000
1F000000000000
1F000000000000
3E000000000000
3E000000000000
7C000000000000
7C000000000000
7C000000000000
78000000000000
78000000000000
F8000000000000
F8000000000000
F8000000000000
F80000000001E0
F80000000001E0
780000000001E0
780000000001E0
780000000003E0
7C0000000003E0
7C0000000003C0
3C0000000007C0
3E0000000007C0
3E000000000F80
1F000000000F80
1F000000001F00
0F800000003F00
0FC00000003E00
07E00000007E00
03F0000000FC00
03F8000001F800
01FE000007F000
00FF00001FE000
003FE0007FC000
001FFE0FFF8000
000FFFFFFE0000
0003FFFFFC0000
0000FFFFE00000
00000FFF000000
ENDCHAR
STARTCHAR 007D
ENCODING 125
SWIDTH 492 0
DWIDTH 26 0
BBX 0 0 0 0
BITMAP
ENDCHAR
STARTCHAR 007E
ENCODING 126
SWIDTH 492 0
DWIDTH 26 0
BBX 0 0 0 0
BITMAP
ENDCHAR
STARTCHAR 00A0
ENCODING 160
SWIDTH 246 0
DWIDTH 13 0
BBX 0 0 0 0
BITMAP
ENDCHAR
STARTCHAR 00A1
ENCODING 161
SWIDTH 322 0
DWIDTH 17 0
BBX 0 0 0 0
BITMAP
ENDCHAR
STARTCHAR 00A2
ENCODING 162
SWIDTH 549 0
DWIDTH 29 0
BBX 0 0 0 0
BITMAP
ENDCHAR
STARTCHAR 00A3
ENCODING 163
SWIDTH 492 0
DWIDTH 26 0
BBX 0 0 0 0
BITMAP
ENDCHAR
STARTCHAR 00A4
ENCODING 164
SWIDTH 492 0
DWIDTH 26 0
BBX 0 0 0 0
BITMAP
ENDCHAR
STARTCHAR 00A5
ENCODING 165
SWIDTH 625 0
DWIDTH 33 0
BBX 0 0 0 0
BITMAP
ENDCHAR
STARTCHAR 00A6
ENCODING 166
SWIDTH 492 0
DWIDTH 26 0
BBX 0 0 0 0
BITMAP
ENDCHAR
STARTCHAR 00A7
ENCODING 167
SWIDTH 492 0
DWIDTH 26 0
BBX 0 0 0 0
BITMAP
ENDCHAR
STARTCHAR 00A8
ENCODING 168
SWIDTH 511 0
DWIDTH 27 0
BBX 0 0 0 0
BITMAP
ENDCHAR
STARTCHAR 00A9
ENCODING 169
SWIDTH 814 0
DWIDTH 43 0
BBX 0 0 0 0
BITMAP
ENDCHAR
STARTCHAR 00AA
ENCODING 170
SWIDTH 322 0
DWIDTH 17 0
BBX 0 0 0 0
BITMAP
ENDCHAR
STARTCHAR 00AB
ENCODING 171
SWIDTH 454 0
DWIDTH 24 0
BBX 0 0 0 0
BITMAP
ENDCHAR
STARTCHAR 00AC
ENCODING 172
SWIDTH 492 0
DWIDTH 26 0
BBX 0 0 0 0
BITMAP
ENDCHAR
STARTCHAR 00AD
ENCODING 173
SWIDTH 985 0
DWIDTH 52 0
BBX 51 51 0 -9
BITMAP
00001FFF000000
0000FFFFE00000
0003FFFFFC0000
000FF801FE0000
001FC0003F8000
003E00000FC000
00FC000003E000
01F0000001F000
01E00000007800
03F00000203C00
07B80000701E00
0F1C0000F01E00
0F0E0001F00F00
1E070003F00780
1C038007F00780
3C01C00FF00380
3800E01FF003C0
3800703FF001C0
7800003FF001C0
7000FFFFF001E0
7000FFFFF000E0
7000FFFFF000E0
7000FFFFF000E0
F000FFFFF000E0
F000FFFFF000E0
F000FFFFF000E0
F000FFFFF000E0
F000FFFFF000E0
7000FFFFF000E0
7000FFFFF000E0
7000FFFFF001E0
7800007FF001E0
7800003FF001C0
3800001FF003C0
3C00000FF003C0
1C000007F40780
1E000003F60780
0E000001F70F00
0F000000F38F00
0780000071DE00
07C0000020FC00
03E00000007800
01F0000000F000
00F8000003F000
007E000007C000
001F80001F8000
000FF000FF0000
0003FFFFFC0000
0000FFFFF00000
00003FFF800000
00000060000000
ENDCHAR
STARTCHAR 00AE
ENCODING 174
SWIDTH 814 0
DWIDTH 43 0
BBX 0 0 0 0
BITMAP
ENDCHAR
STARTCHAR 00AF
ENCODING 175
SWIDTH 322 0
DWIDTH 17 0
BBX 0 0 0 0
BITMAP
ENDCHAR
STARTCHAR 00B0
ENCODING 176
SWIDTH 322 0
DWIDTH 17 0
BBX 0 0 0 0
BITMAP
ENDCHAR
STARTCHAR 00B1
ENCODING 177
SWIDTH 492 0
DWIDTH 26 0
BBX 0 0 0 0
BITMAP
ENDCHAR
STARTCHAR 00B2
ENCODING 178
SWIDTH 492 0
DWIDTH 26 0
BBX 0 0 0 0
BITMAP
ENDCHAR
STARTCHAR 00B3
ENCODING 179
SWIDTH 492 0
DWIDTH 26 0
BBX 0 0 0 0
BITMAP
ENDCHAR
STARTCHAR 00B4
ENCODING 180
SWIDTH 511 0
DWIDTH 27 0
BBX 0 0 0 0
BITMAP
ENDCHAR
STARTCHAR 00B5
ENCODING 181
SWIDTH 587 0
DWIDTH 31 0
BBX 0 0 0 0
BITMAP
ENDCHAR
STARTCHAR 00B6
ENCODING 182
SWIDTH 511 0
DWIDTH 27 0
BBX 0 0 0 0
BITMAP
ENDCHAR
STARTCHAR 00B7
ENCODING 183
SWIDTH 246 0
DWIDTH 13 0
BBX 0 0 0 0
BITMAP
ENDCHAR
STARTCHAR 00B8
ENCODING 184
SWIDTH 511 0
DWIDTH 27 0
BBX 0 0 0 0
BITMAP
ENDCHAR
STARTCHAR 00B9
ENCODING 185
SWIDTH 492 0
DWIDTH 26 0
BBX 0 0 0 0
BITMAP
ENDCHAR
STARTCHAR 00BA
ENCODING 186
SWIDTH 360 0
DWIDTH 19 0
BBX 0 0 0 0
BITMAP
ENDCHAR
STARTCHAR 00BB
ENCODING 187
SWIDTH 454 0
DWIDTH 24 0
BBX 0 0 0 0
BITMAP
ENDCHAR
STARTCHAR 00BC
ENCODING 188
SWIDTH 833 0
DWIDTH 44 0
BBX 0 0 0 0
BITMAP
ENDCHAR
STARTCHAR 00BD
ENCODING 189
SWIDTH 966 0
DWIDTH 51 0
BBX 0 0 0 0
BITMAP
ENDCHAR
STARTCHAR 00BE
ENCODING 190
SWIDTH 833 0
DWIDTH 44 0
BBX 0 0 0 0
BITMAP
ENDCHAR
STARTCHAR 00BF
ENCODING 191
SWIDTH 360 0
DWIDTH 19 0
BBX 0 0 0 0
BITMAP
ENDCHAR
STARTCHAR 00C0
ENCODING 192
SWIDTH 757 0
DWIDTH 40 0
BBX 0 0 0 0
BITMAP
ENDCHAR
STARTCHAR 00C1
ENCODING 193
SWIDTH 757 0
DWIDTH 40 0
BBX 0 0 0 0
BITMAP
ENDCHAR
STARTCHAR 00C2
ENCODING 194
SWIDTH 757 0
DWIDTH 40 0
BBX 0 0 0 0
BITMAP
ENDCHAR
STARTCHAR 00C3
ENCODING 195
SWIDTH 757 0
DWIDTH 40 0
BBX 0 0 0 0
BITMAP
ENDCHAR
STARTCHAR 00C4
ENCODING 196
SWIDTH 757 0
DWIDTH 40 0
BBX 0 0 0 0
BITMAP
ENDCHAR
STARTCHAR 00C5
ENCODING 197
SWIDTH 757 0
DWIDTH 40 0
BBX 0 0 0 0
BITMAP
ENDCHAR
STARTCHAR 00C6
ENCODING 198
SWIDTH 1042 0
DWIDTH 55 0
BBX 0 0 0 0
BITMAP
ENDCHAR
STARTCHAR 00C7
ENCODING 199
SWIDTH 682 0
DWIDTH 36 0
BBX 0 0 0 0
BITMAP
ENDCHAR
STARTCHAR 00C8
ENCODING 200
SWIDTH 568 0
DWIDTH 30 0
BBX 0 0 0 0
BITMAP
ENDCHAR
STARTCHAR 00C9
ENCODING 201
SWIDTH 568 0
DWIDTH 30 0
BBX 0 0 0 0
BITMAP
ENDCHAR
STARTCHAR 00CA
ENCODING 202
SWIDTH 568 0
DWIDTH 30 0
BBX 0 0 0 0
BITMAP
ENDCHAR
STARTCHAR 00CB
ENCODING 203
SWIDTH 568 0
DWIDTH 30 0
BBX 0 0 0 0
BITMAP
ENDCHAR
STARTCHAR 00CC
ENCODING 204
SWIDTH 322 0
DWIDTH 17 0
BBX 0 0 0 0
BITMAP
ENDCHAR
STARTCHAR 00CD
ENCODING 205
SWIDTH 322 0
DWIDTH 17 0
BBX 0 0 0 0
BITMAP
ENDCHAR
STARTCHAR 00CE
ENCODING 206
SWIDTH 322 0
DWIDTH 17 0
BBX 0 0 0 0
BITMAP
ENDCHAR
STARTCHAR 00CF
ENCODING 207
SWIDTH 322 0
DWIDTH 17 0
BBX 0 0 0 0
BITMAP
ENDCHAR
STARTCHAR 00D0
ENCODING 208
SWIDTH 738 0
DWIDTH 39 0
BBX 0 0 0 0
BITMAP
ENDCHAR
STARTCHAR 00D1
ENCODING 209
SWIDTH 757 0
DWIDTH 40 0
BBX 0 0 0 0
BITMAP
ENDCHAR
STARTCHAR 00D2
ENCODING 210
SWIDTH 795 0
DWIDTH 42 0
BBX 0 0 0 0
BITMAP
ENDCHAR
STARTCHAR 00D3
ENCODING 211
SWIDTH 795 0
DWIDTH 42 0
BBX 0 0 0 0
BITMAP
ENDCHAR
STARTCHAR 00D4
ENCODING 212
SWIDTH 795 0
DWIDTH 42 0
BBX 0 0 0 0
BITMAP
ENDCHAR
STARTCHAR 00D5
ENCODING 213
SWIDTH 795 0
DWIDTH 42 0
BBX 0 0 0 0
BITMAP
ENDCHAR
STARTCHAR 00D6
ENCODING 214
SWIDTH 795 0
DWIDTH 42 0
BBX 0 0 0 0
BITMAP
ENDCHAR
STARTCHAR 00D7
ENCODING 215
SWIDTH 492 0
DWIDTH 26 0
BBX 0 0 0 0
BITMAP
ENDCHAR
STARTCHAR 00D8
ENCODING 216
SWIDTH 795 0
DWIDTH 42 0
BBX 0 0 0 0
BITMAP
ENDCHAR
STARTCHAR 00D9
ENCODING 217
SWIDTH 738 0
DWIDTH 39 0
BBX 0 0 0 0
BITMAP
ENDCHAR
STARTCHAR 00DA
ENCODING 218
SWIDTH 738 0
DWIDTH 39 0
BBX 0 0 0 0
BITMAP
ENDCHAR
STARTCHAR 00DB
ENCODING 219
SWIDTH 738 0
DWIDTH 39 0
BBX 0 0 0 0
BITMAP
ENDCHAR
STARTCHAR 00DC
ENCODING 220
SWIDTH 738 0
DWIDTH 39 0
BBX 0 0 0 0
BITMAP
ENDCHAR
STARTCHAR 00DD
ENCODING 221
SWIDTH 606 0
DWIDTH 32 0
BBX 0 0 0 0
BITMAP
ENDCHAR
STARTCHAR 00DE
ENCODING 222
SWIDTH 549 0
DWIDTH 29 0
BBX 0 0 0 0
BITMAP
ENDCHAR
STARTCHAR 00DF
ENCODING 223
SWIDTH 606 0
DWIDTH 32 0
BBX 0 0 0 0
BITMAP
ENDCHAR
STARTCHAR 00E0
ENCODING 224
SWIDTH 454 0
DWIDTH 24 0
BBX 0 0 0 0
BITMAP
ENDCHAR
STARTCHAR 00E1
ENCODING 225
SWIDTH 454 0
DWIDTH 24 0
BBX 0 0 0 0
BITMAP
ENDCHAR
STARTCHAR 00E2
ENCODING 226
SWIDTH 454 0
DWIDTH 24 0
BBX 0 0 0 0
BITMAP
ENDCHAR
STARTCHAR 00E3
ENCODING 227
SWIDTH 454 0
DWIDTH 24 0
BBX 0 0 0 0
BITMAP
ENDCHAR
STARTCHAR 00E4
ENCODING 228
SWIDTH 454 0
DWIDTH 24 0
BBX 0 0 0 0
BITMAP
ENDCHAR
STARTCHAR 00E5
ENCODING 229
SWIDTH 454 0
DWIDTH 24 0
BBX 0 0 0 0
BITMAP
ENDCHAR
STARTCHAR 00E6
ENCODING 230
SWIDTH 720 0
DWIDTH 38 0
BBX 0 0 0 0
BITMAP
ENDCHAR
STARTCHAR 00E7
ENCODING 231
SWIDTH 435 0
DWIDTH 23 0
BBX 0 0 0 0
BITMAP
ENDCHAR
STARTCHAR 00E8
ENCODING 232
SWIDTH 454 0
DWIDTH 24 0
BBX 0 0 0 0
BITMAP
ENDCHAR
STARTCHAR 00E9
ENCODING 233
SWIDTH 454 0
DWIDTH 24 0
BBX 0 0 0 0
BITMAP
ENDCHAR
STARTCHAR 00EA
ENCODING 234
SWIDTH 454 0
DWIDTH 24 0
BBX 0 0 0 0
BITMAP
ENDCHAR
STARTCHAR 00EB
ENCODING 235
SWIDTH 454 0
DWIDTH 24 0
BBX 0 0 0 0
BITMAP
ENDCHAR
STARTCHAR 00EC
ENCODING 236
SWIDTH 246 0
DWIDTH 13 0
BBX 0 0 0 0
BITMAP
ENDCHAR
STARTCHAR 00ED
ENCODING 237
SWIDTH 246 0
DWIDTH 13 0
BBX 0 0 0 0
BITMAP
ENDCHAR
STARTCHAR 00EE
ENCODING 238
SWIDTH 246 0
DWIDTH 13 0
BBX 0 0 0 0
BITMAP
ENDCHAR
STARTCHAR 00EF
ENCODING 239
SWIDTH 246 0
DWIDTH 13 0
BBX 0 0 0 0
BITMAP
ENDCHAR
STARTCHAR 00F0
ENCODING 240
SWIDTH 549 0
DWIDTH 29 0
BBX 0 0 0 0
BITMAP
ENDCHAR
STARTCHAR 00F1
ENCODING 241
SWIDTH 549 0
DWIDTH 29 0
BBX 0 0 0 0
BITMAP
ENDCHAR
STARTCHAR 00F2
ENCODING 242
SWIDTH 492 0
DWIDTH 26 0
BBX 0 0 0 0
BITMAP
ENDCHAR
STARTCHAR 00F3
ENCODING 243
SWIDTH 492 0
DWIDTH 26 0
BBX 0 0 0 0
BITMAP
ENDCHAR
STARTCHAR 00F4
ENCODING 244
SWIDTH 492 0
DWIDTH 26 0
BBX 0 0 0 0
BITMAP
ENDCHAR
STARTCHAR 00F5
ENCODING 245
SWIDTH 492 0
DWIDTH 26 0
BBX 0 0 0 0
BITMAP
ENDCHAR
STARTCHAR 00F6
ENCODING 246
SWIDTH 492 0
DWIDTH 26 0
BBX 0 0 0 0
BITMAP
ENDCHAR
STARTCHAR 00F7
ENCODING 247
SWIDTH 492 0
DWIDTH 26 0
BBX 0 0 0 0
BITMAP
ENDCHAR
STARTCHAR 00F8
ENCODING 248
SWIDTH 492 0
DWIDTH 26 0
BBX 0 0 0 0
BITMAP
ENDCHAR
STARTCHAR 00F9
ENCODING 249
SWIDTH 511 0
DWIDTH 27 0
BBX 0 0 0 0
BITMAP
ENDCHAR
STARTCHAR 00FA
ENCODING 250
SWIDTH 511 0
DWIDTH 27 0
BBX 0 0 0 0
BITMAP
ENDCHAR
STARTCHAR 00FB
ENCODING 251
SWIDTH 511 0
DWIDTH 27 0
BBX 0 0 0 0
BITMAP
ENDCHAR
STARTCHAR 00FC
ENCODING 252
SWIDTH 511 0
DWIDTH 27 0
BBX 0 0 0 0
BITMAP
ENDCHAR
STARTCHAR 00FD
ENCODING 253
SWIDTH 416 0
DWIDTH 22 0
BBX 0 0 0 0
BITMAP
ENDCHAR
STARTCHAR 00FE
ENCODING 254
SWIDTH 492 0
DWIDTH 26 0
BBX 0 0 0 0
BITMAP
ENDCHAR
STARTCHAR 00FF
ENCODING 255
SWIDTH 416 0
DWIDTH 22 0
BBX 0 0 0 0
BITMAP
ENDCHAR
STARTCHAR 0131
ENCODING 305
SWIDTH 246 0
DWIDTH 13 0
BBX 0 0 0 0
BITMAP
ENDCHAR
STARTCHAR 02C6
ENCODING 710
SWIDTH 511 0
DWIDTH 27 0
BBX 0 0 0 0
BITMAP
ENDCHAR
STARTCHAR 02C7
ENCODING 711
SWIDTH 511 0
DWIDTH 27 0
BBX 0 0 0 0
BITMAP
ENDCHAR
STARTCHAR 02C9
ENCODING 713
SWIDTH 511 0
DWIDTH 27 0
BBX 0 0 0 0
BITMAP
ENDCHAR
STARTCHAR 02D8
ENCODING 728
SWIDTH 511 0
DWIDTH 27 0
BBX 0 0 0 0
BITMAP
ENDCHAR
STARTCHAR 02D9
ENCODING 729
SWIDTH 511 0
DWIDTH 27 0
BBX 0 0 0 0
BITMAP
ENDCHAR
STARTCHAR 02DA
ENCODING 730
SWIDTH 511 0
DWIDTH 27 0
BBX 0 0 0 0
BITMAP
ENDCHAR
STARTCHAR 02DB
ENCODING 731
SWIDTH 511 0
DWIDTH 27 0
BBX 0 0 0 0
BITMAP
ENDCHAR
STARTCHAR 02DC
ENCODING 732
SWIDTH 511 0
DWIDTH 27 0
BBX 0 0 0 0
BITMAP
ENDCHAR
STARTCHAR 02DD
ENCODING 733
SWIDTH 511 0
DWIDTH 27 0
BBX 0 0 0 0
BITMAP
ENDCHAR
STARTCHAR 037E
ENCODING 894
SWIDTH 985 0
DWIDTH 52 0
BBX 52 51 0 -9
BITMAP
000000F0000000
000000F0000000
000000F0000000
000000F0000000
000000F0000000
000000F0000000
000000F0000000
000000F0000000
000000F0000000
000000F0000000
000000F0000000
000000F0000000
000000F0000000
000000F0000000
000000F0000000
000000F0000000
000000F0000000
000000F0000000
000000F0000000
000000F0000000
000000F0000000
000000F0000000
000000F0000000
FFFFFFFFFFFFF0
FFFFFFFFFFFFF0
FFFFFFFFFFFFF0
FFFFFFFFFFFFF0
000000F0000000
000000F0000000
000000F0000000
000000F0000000
000000F0000000
000000F0000000
000000F0000000
000000F0000000
000000F0000000
000000F0000000
000000F0000000
000000F0000000
000000F0000000
000000F0000000
000000F0000000
000000F0000000
000000F0000000
000000F0000000
000000F0000000
000000F0000000
000000F0000000
000000F0000000
000000F0000000
000000F0000000
ENDCHAR
STARTCHAR 2013
ENCODING 8211
SWIDTH 549 0
DWIDTH 29 0
BBX 0 0 0 0
BITMAP
ENDCHAR
STARTCHAR 2014
ENCODING 8212
SWIDTH 1004 0
DWIDTH 53 0
BBX 0 0 0 0
BITMAP
ENDCHAR
STARTCHAR 2018
ENCODING 8216
SWIDTH 265 0
DWIDTH 14 0
BBX 0 0 0 0
BITMAP
ENDCHAR
STARTCHAR 2019
ENCODING 8217
SWIDTH 265 0
DWIDTH 14 0
BBX 0 0 0 0
BITMAP
ENDCHAR
STARTCHAR 201A
ENCODING 8218
SWIDTH 265 0
DWIDTH 14 0
BBX 0 0 0 0
BITMAP
ENDCHAR
STARTCHAR 201C
ENCODING 8220
SWIDTH 454 0
DWIDTH 24 0
BBX 0 0 0 0
BITMAP
ENDCHAR
STARTCHAR 201D
ENCODING 8221
SWIDTH 454 0
DWIDTH 24 0
BBX 0 0 0 0
BITMAP
ENDCHAR
STARTCHAR 201E
ENCODING 8222
SWIDTH 454 0
DWIDTH 24 0
BBX 0 0 0 0
BITMAP
ENDCHAR
STARTCHAR 2020
ENCODING 8224
SWIDTH 492 0
DWIDTH 26 0
BBX 0 0 0 0
BITMAP
ENDCHAR
STARTCHAR 2021
ENCODING 8225
SWIDTH 492 0
DWIDTH 26 0
BBX 0 0 0 0
BITMAP
ENDCHAR
STARTCHAR 2022
ENCODING 8226
SWIDTH 511 0
DWIDTH 27 0
BBX 0 0 0 0
BITMAP
ENDCHAR
STARTCHAR 2026
ENCODING 8230
SWIDTH 1004 0
DWIDTH 53 0
BBX 0 0 0 0
BITMAP
ENDCHAR
STARTCHAR 2039
ENCODING 8249
SWIDTH 303 0
DWIDTH 16 0
BBX 0 0 0 0
BITMAP
ENDCHAR
STARTCHAR 203A
ENCODING 8250
SWIDTH 303 0
DWIDTH 16 0
BBX 0 0 0 0
BITMAP
ENDCHAR
STARTCHAR 2044
ENCODING 8260
SWIDTH 170 0
DWIDTH 9 0
BBX 0 0 0 0
BITMAP
ENDCHAR
STARTCHAR 20A3
ENCODING 8355
SWIDTH 492 0
DWIDTH 26 0
BBX 0 0 0 0
BITMAP
ENDCHAR
STARTCHAR 20A4
ENCODING 8356
SWIDTH 492 0
DWIDTH 26 0
BBX 0 0 0 0
BITMAP
ENDCHAR
STARTCHAR 20A7
ENCODING 8359
SWIDTH 985 0
DWIDTH 52 0
BBX 0 0 0 0
BITMAP
ENDCHAR
STARTCHAR 20AC
ENCODING 8364
SWIDTH 492 0
DWIDTH 26 0
BBX 0 0 0 0
BITMAP
ENDCHAR
STARTCHAR 2116
ENCODING 8470
SWIDTH 1117 0
DWIDTH 59 0
BBX 0 0 0 0
BITMAP
ENDCHAR
STARTCHAR 2122
ENCODING 8482
SWIDTH 738 0
DWIDTH 39 0
BBX 0 0 0 0
BITMAP
ENDCHAR
STARTCHAR 2202
ENCODING 8706
SWIDTH 492 0
DWIDTH 26 0
BBX 0 0 0 0
BITMAP
ENDCHAR
STARTCHAR 2206
ENCODING 8710
SWIDTH 530 0
DWIDTH 28 0
BBX 0 0 0 0
BITMAP
ENDCHAR
STARTCHAR 220F
ENCODING 8719
SWIDTH 738 0
DWIDTH 39 0
BBX 0 0 0 0
BITMAP
ENDCHAR
STARTCHAR 2211
ENCODING 8721
SWIDTH 587 0
DWIDTH 31 0
BBX 0 0 0 0
BITMAP
ENDCHAR
STARTCHAR 2212
ENCODING 8722
SWIDTH 492 0
DWIDTH 26 0
BBX 0 0 0 0
BITMAP
ENDCHAR
STARTCHAR 2215
ENCODING 8725
SWIDTH 170 0
DWIDTH 9 0
BBX 0 0 0 0
BITMAP
ENDCHAR
STARTCHAR 2219
ENCODING 8729
SWIDTH 246 0
DWIDTH 13 0
BBX 0 0 0 0
BITMAP
ENDCHAR
STARTCHAR 221A
ENCODING 8730
SWIDTH 492 0
DWIDTH 26 0
BBX 0 0 0 0
BITMAP
ENDCHAR
STARTCHAR 221E
ENCODING 8734
SWIDTH 492 0
DWIDTH 26 0
BBX 0 0 0 0
BITMAP
ENDCHAR
STARTCHAR 222B
ENCODING 8747
SWIDTH 322 0
DWIDTH 17 0
BBX 0 0 0 0
BITMAP
ENDCHAR
STARTCHAR 2248
ENCODING 8776
SWIDTH 492 0
DWIDTH 26 0
BBX 0 0 0 0
BITMAP
ENDCHAR
STARTCHAR 2264
ENCODING 8804
SWIDTH 492 0
DWIDTH 26 0
BBX 0 0 0 0
BITMAP
ENDCHAR
STARTCHAR 2265
ENCODING 8805
SWIDTH 492 0
DWIDTH 26 0
BBX 0 0 0 0
BITMAP
ENDCHAR
STARTCHAR F001
ENCODING 61441
SWIDTH 530 0
DWIDTH 28 0
BBX 0 0 0 0
BITMAP
ENDCHAR
STARTCHAR F002
ENCODING 61442
SWIDTH 530 0
DWIDTH 28 0
BBX 0 0 0 0
BITMAP
ENDCHAR
STARTCHAR FB01
ENCODING 64257
SWIDTH 530 0
DWIDTH 28 0
BBX 0 0 0 0
BITMAP
ENDCHAR
STARTCHAR FB02
ENCODING 64258
SWIDTH 530 0
DWIDTH 28 0
BBX 0 0 0 0
BITMAP
ENDCHAR
ENDFONT
